<svg xmlns="http://www.w3.org/2000/svg" width="0" height="0"><defs><symbol id="apple" fill="none" stroke="currentColor" stroke-linecap="round" stroke-linejoin="round" stroke-width="2" viewBox="0 0 24 24"><path d="M12 20.94c1.5 0 2.75 1.06 4 1.06 3 0 6-8 6-12.22A4.91 4.91 0 0 0 17 5c-2.22 0-4 1.44-5 2-1-.56-2.78-2-5-2a4.9 4.9 0 0 0-5 4.78C2 14 5 22 8 22c1.25 0 2.5-1.06 4-1.06"/><path d="M10 2c1 .5 2 2 2 5"/></symbol><symbol id="atom" fill="none" stroke="currentColor" stroke-linecap="round" stroke-linejoin="round" stroke-width="2" viewBox="0 0 24 24"><circle cx="12" cy="12" r="1"/><path d="M20.2 20.2c2.04-2.03.02-7.36-4.5-11.9-4.54-4.52-9.87-6.54-11.9-4.5-2.04 2.03-.02 7.36 4.5 11.9 4.54 4.52 9.87 6.54 11.9 4.5"/><path d="M15.7 15.7c4.52-4.54 6.54-9.87 4.5-11.9-2.03-2.04-7.36-.02-11.9 4.5-4.52 4.54-6.54 9.87-4.5 11.9 2.03 2.04 7.36.02 11.9-4.5"/></symbol><symbol id="audio-waveform" fill="none" stroke="currentColor" stroke-linecap="round" stroke-linejoin="round" stroke-width="2" viewBox="0 0 24 24"><path d="M2 13a2 2 0 0 0 2-2V7a2 2 0 0 1 4 0v13a2 2 0 0 0 4 0V4a2 2 0 0 1 4 0v13a2 2 0 0 0 4 0v-4a2 2 0 0 1 2-2"/></symbol><symbol id="axe" fill="none" stroke="currentColor" stroke-linecap="round" stroke-linejoin="round" stroke-width="2" viewBox="0 0 24 24"><path d="m14 12-8.5 8.5a2.12 2.12 0 1 1-3-3L11 9"/><path d="M15 13 9 7l4-4 6 6h3a8 8 0 0 1-7 7z"/></symbol><symbol id="book-a" fill="none" stroke="currentColor" stroke-linecap="round" stroke-linejoin="round" stroke-width="2" viewBox="0 0 24 24"><path d="M4 19.5v-15A2.5 2.5 0 0 1 6.5 2H20v20H6.5a2.5 2.5 0 0 1 0-5H20"/><path d="m8 13 4-7 4 7M9.1 11h5.7"/></symbol><symbol id="book-down" fill="none" stroke="currentColor" stroke-linecap="round" stroke-linejoin="round" stroke-width="2" viewBox="0 0 24 24"><path d="M4 19.5v-15A2.5 2.5 0 0 1 6.5 2H20v20H6.5a2.5 2.5 0 0 1 0-5H20M12 13V7"/><path d="m9 10 3 3 3-3"/></symbol><symbol id="book-image" fill="none" stroke="currentColor" stroke-linecap="round" stroke-linejoin="round" stroke-width="2" viewBox="0 0 24 24"><path d="M4 19.5v-15A2.5 2.5 0 0 1 6.5 2H20v20H6.5a2.5 2.5 0 0 1 0-5H20"/><circle cx="10" cy="8" r="2"/><path d="m20 13.7-2.1-2.1c-.8-.8-2-.8-2.8 0L9.7 17"/></symbol><symbol id="book-open-text" fill="none" stroke="currentColor" stroke-linecap="round" stroke-linejoin="round" stroke-width="2" viewBox="0 0 24 24"><path d="M2 3h6a4 4 0 0 1 4 4v14a3 3 0 0 0-3-3H2zM22 3h-6a4 4 0 0 0-4 4v14a3 3 0 0 1 3-3h7zM6 8h2M6 12h2M16 8h2M16 12h2"/></symbol><symbol id="book" fill="none" stroke="currentColor" stroke-linecap="round" stroke-linejoin="round" stroke-width="2" viewBox="0 0 24 24"><path d="M4 19.5v-15A2.5 2.5 0 0 1 6.5 2H20v20H6.5a2.5 2.5 0 0 1 0-5H20"/></symbol><symbol id="bookmark" fill="none" stroke="currentColor" stroke-linecap="round" stroke-linejoin="round" stroke-width="2" viewBox="0 0 24 24"><path d="m19 21-7-4-7 4V5a2 2 0 0 1 2-2h10a2 2 0 0 1 2 2z"/></symbol><symbol id="calculator" fill="none" stroke="currentColor" stroke-linecap="round" stroke-linejoin="round" stroke-width="2" viewBox="0 0 24 24"><rect width="16" height="20" x="4" y="2" rx="2"/><path d="M8 6h8M16 14v4M16 10h.01M12 10h.01M8 10h.01M12 14h.01M8 14h.01M12 18h.01M8 18h.01"/></symbol><symbol id="castle" fill="none" stroke="currentColor" stroke-linecap="round" stroke-linejoin="round" stroke-width="2" viewBox="0 0 24 24"><path d="M22 20v-9H2v9a2 2 0 0 0 2 2h16a2 2 0 0 0 2-2M18 11V4H6v7"/><path d="M15 22v-4a3 3 0 0 0-3-3v0a3 3 0 0 0-3 3v4M22 11V9M2 11V9M6 4V2M18 4V2M10 4V2M14 4V2"/></symbol><symbol id="chevron-down" fill="none" stroke="currentColor" stroke-linecap="round" stroke-linejoin="round" stroke-width="2" viewBox="0 0 24 24"><path d="m6 9 6 6 6-6"/></symbol><symbol id="chevron-first" fill="none" stroke="currentColor" stroke-linecap="round" stroke-linejoin="round" stroke-width="2" viewBox="0 0 24 24"><path d="m17 18-6-6 6-6M7 6v12"/></symbol><symbol id="chevron-last" fill="none" stroke="currentColor" stroke-linecap="round" stroke-linejoin="round" stroke-width="2" viewBox="0 0 24 24"><path d="m7 18 6-6-6-6M17 6v12"/></symbol><symbol id="chevron-left" fill="none" stroke="currentColor" stroke-linecap="round" stroke-linejoin="round" stroke-width="2" viewBox="0 0 24 24"><path d="m15 18-6-6 6-6"/></symbol><symbol id="chevron-right" fill="none" stroke="currentColor" stroke-linecap="round" stroke-linejoin="round" stroke-width="2" viewBox="0 0 24 24"><path d="m9 18 6-6-6-6"/></symbol><symbol id="chevron-up" fill="none" stroke="currentColor" stroke-linecap="round" stroke-linejoin="round" stroke-width="2" viewBox="0 0 24 24"><path d="m18 15-6-6-6 6"/></symbol><symbol id="chevrons-down-up" fill="none" stroke="currentColor" stroke-linecap="round" stroke-linejoin="round" stroke-width="2" viewBox="0 0 24 24"><path d="m7 20 5-5 5 5M7 4l5 5 5-5"/></symbol><symbol id="chevrons-down" fill="none" stroke="currentColor" stroke-linecap="round" stroke-linejoin="round" stroke-width="2" viewBox="0 0 24 24"><path d="m7 6 5 5 5-5M7 13l5 5 5-5"/></symbol><symbol id="chevrons-left-right" fill="none" stroke="currentColor" stroke-linecap="round" stroke-linejoin="round" stroke-width="2" viewBox="0 0 24 24"><path d="m9 7-5 5 5 5M15 7l5 5-5 5"/></symbol><symbol id="chevrons-left" fill="none" stroke="currentColor" stroke-linecap="round" stroke-linejoin="round" stroke-width="2" viewBox="0 0 24 24"><path d="m11 17-5-5 5-5M18 17l-5-5 5-5"/></symbol><symbol id="chevrons-right-left" fill="none" stroke="currentColor" stroke-linecap="round" stroke-linejoin="round" stroke-width="2" viewBox="0 0 24 24"><path d="m20 17-5-5 5-5M4 17l5-5-5-5"/></symbol><symbol id="chevrons-right" fill="none" stroke="currentColor" stroke-linecap="round" stroke-linejoin="round" stroke-width="2" viewBox="0 0 24 24"><path d="m6 17 5-5-5-5M13 17l5-5-5-5"/></symbol><symbol id="chevrons-up-down" fill="none" stroke="currentColor" stroke-linecap="round" stroke-linejoin="round" stroke-width="2" viewBox="0 0 24 24"><path d="m7 15 5 5 5-5M7 9l5-5 5 5"/></symbol><symbol id="chevrons-up" fill="none" stroke="currentColor" stroke-linecap="round" stroke-linejoin="round" stroke-width="2" viewBox="0 0 24 24"><path d="m17 11-5-5-5 5M17 18l-5-5-5 5"/></symbol><symbol id="clipboard-copy" fill="none" stroke="currentColor" stroke-linecap="round" stroke-linejoin="round" stroke-width="2" viewBox="0 0 24 24"><rect width="8" height="4" x="8" y="2" rx="1" ry="1"/><path d="M8 4H6a2 2 0 0 0-2 2v14a2 2 0 0 0 2 2h12a2 2 0 0 0 2-2v-2M16 4h2a2 2 0 0 1 2 2v4M21 14H11"/><path d="m15 10-4 4 4 4"/></symbol><symbol id="code" fill="none" stroke="currentColor" stroke-linecap="round" stroke-linejoin="round" stroke-width="2" viewBox="0 0 24 24"><path d="m16 18 6-6-6-6M8 6l-6 6 6 6"/></symbol><symbol id="coffee" fill="none" stroke="currentColor" stroke-linecap="round" stroke-linejoin="round" stroke-width="2" viewBox="0 0 24 24"><path d="M10 2v2M14 2v2M16 8a1 1 0 0 1 1 1v8a4 4 0 0 1-4 4H7a4 4 0 0 1-4-4V9a1 1 0 0 1 1-1h14a4 4 0 1 1 0 8h-1M6 2v2"/></symbol><symbol id="discord-logo" fill="none" viewBox="0 0 15 15"><path fill="currentColor" fill-rule="evenodd" d="M5.07451 1.82584a.48.48 0 0 0-.12648-.003c-.8412.09162-2.1213.54544-2.87688.95524a.48.48 0 0 0-.13246.10594c-.31367.35864-.59823.94434-.82163 1.49784-.22961.5689-.41977 1.16846-.52812 1.60168C.23624 7.39369.0425 9.08728.01749 10.6925a.48.48 0 0 0 .0551.2309c.30109.5726.94756 1.1036 1.5955 1.4918.65523.3926 1.41923.703 2.03576.7626a.4804.4804 0 0 0 .39897-.1523c.15438-.1674.41648-.5579.61463-.8612.08994-.1376.17412-.269.241-.3742.66178.1205 1.49198.19 2.54157.19 1.04842 0 1.87794-.0694 2.53938-.1896.0668.1052.1509.2364.2407.3738.1982.3033.4603.6938.6146.8612a.4805.4805 0 0 0 .399.1523c.6165-.0596 1.3805-.37 2.0358-.7626.6479-.3882 1.2944-.9192 1.5955-1.4918a.4805.4805 0 0 0 .0551-.2309c-.025-1.60522-.2188-3.29881-.5715-4.70896-.1083-.43322-.2985-1.03278-.5281-1.60168-.2234-.5535-.508-1.1392-.8216-1.49784a.48.48 0 0 0-.1325-.10594c-.7556-.4098-2.0357-.86362-2.8769-.95524a.48.48 0 0 0-.12645.003c-.20629.03241-.38395.13874-.51496.23771-.13832.10449-.26679.23313-.37769.36327-.16072.18862-.31603.41806-.41612.63543C8.27237 3.03501 7.90138 3.02 7.5 3.02c-.4023 0-.77407.01508-1.11663.04244-.10009-.21743-.25545-.44695-.41621-.63562-.1109-.13014-.23938-.25878-.37769-.36327-.13101-.09897-.30867-.2053-.51496-.23771m5.94359 9.71236c.0214.0331.0434.0669.0657.101.1331.2038.2649.3993.367.5417.3967-.0893.9012-.2991 1.3853-.5892.5434-.3256.9737-.6999 1.1816-1.0178-.0325-1.50632-.2184-3.07021-.5404-4.35742-.0973-.38889-.2735-.94627-.487-1.47531-.201-.49791-.415-.91955-.6023-1.16197-.6504-.33701-1.6751-.69338-2.3426-.78933-.0146.00852-.0341.02115-.05865.03968-.06812.05145-.14657.12711-.22564.2199a2.2 2.2 0 0 0-.11343.14504c.30532.05582.57762.12261.81852.19674.6837.21037 1.1766.49916 1.4178.82077.1591.21208.1161.51294-.096.672s-.5129.11608-.672-.096c-.0588-.07839-.3159-.2896-.9322-.47923C9.58933 4.12585 8.71356 3.98 7.5 3.98s-2.08933.14585-2.68384.32877c-.61628.18963-.87337.40084-.93216.47923-.15906.21208-.45992.25506-.672.096s-.25506-.45992-.096-.672c.24121-.32161.73411-.6104 1.41783-.82077.24035-.07396.51188-.14061.81633-.19635a2.21 2.21 0 0 0-.11371-.14543c-.07907-.09279-.15752-.16845-.22564-.2199-.02453-.01853-.04407-.03116-.05864-.03968-.66753.09595-1.69218.45232-2.34263.78933-.18728.24242-.40129.66406-.60225 1.16197-.21353.52904-.38977 1.08642-.48704 1.47531-.32196 1.28721-.50789 2.8511-.54039 4.35742.20786.3179.63821.6922 1.18162 1.0178.48409.2901.98855.4999 1.38532.5892.10205-.1424.23385-.3379.367-.5417.02246-.0344.04458-.0684.06616-.1017-.78475-.2784-1.20635-.6617-1.47932-1.0711-.14705-.2206-.08744-.51862.13313-.66566.22058-.14705.51859-.08745.66564.13313.26136.39203.94414 1.08623 4.20061 1.08623s3.93918-.6941 4.20058-1.08624c.1471-.22057.4451-.28017.6657-.13312s.2802.44506.1331.66566c-.2732.4098-.6953.7934-1.4813 1.0718M4.08049 7.01221c.24363-.26237.57427-.41059.91958-.41223.34531.00164.67596.14986.91959.41223.24363.26238.38041.61753.38041.98777 0 .37023-.13678.72538-.38041.98776s-.57428.41059-.91959.41224c-.34531-.00165-.67595-.14987-.91958-.41224-.24364-.26238-.38042-.61753-.38042-.98776 0-.37024.13678-.72539.38042-.98777m5.91836-.41223c-.34531.00164-.67595.14986-.91959.41223-.24363.26238-.38041.61753-.38041.98777 0 .37023.13678.72538.38041.98776s.57428.41059.91959.41224c.34535-.00165.67595-.14987.91955-.41224.2437-.26238.3805-.61753.3805-.98776 0-.37024-.1368-.72539-.3805-.98777-.2436-.26237-.5742-.41059-.91955-.41223" clip-rule="evenodd"/></symbol><symbol id="dna-off" fill="none" stroke="currentColor" stroke-linecap="round" stroke-linejoin="round" stroke-width="2" viewBox="0 0 24 24"><path d="M15 2c-1.35 1.5-2.092 3-2.5 4.5M9 22c1.35-1.5 2.092-3 2.5-4.5M2 15c3.333-3 6.667-3 10-3m10-3c-1.5 1.35-3 2.092-4.5 2.5M17 6l-2.5-2.5M14 8l-1.5-1.5M7 18l2.5 2.5M3.5 14.5l.5.5M20 9l.5.5M6.5 12.5l1 1M16.5 10.5l1 1M10 16l1.5 1.5M2 2l20 20"/></symbol><symbol id="dna" fill="none" stroke="currentColor" stroke-linecap="round" stroke-linejoin="round" stroke-width="2" viewBox="0 0 24 24"><path d="M2 15c6.667-6 13.333 0 20-6M9 22c1.798-1.998 2.518-3.995 2.807-5.993M15 2c-1.798 1.998-2.518 3.995-2.807 5.993M17 6l-2.5-2.5M14 8l-1-1M7 18l2.5 2.5M3.5 14.5l.5.5M20 9l.5.5M6.5 12.5l1 1M16.5 10.5l1 1M10 16l1.5 1.5"/></symbol><symbol id="github" fill="none" stroke="currentColor" stroke-linecap="round" stroke-linejoin="round" stroke-width="2" viewBox="0 0 24 24"><path d="M15 22v-4a4.8 4.8 0 0 0-1-3.5c3 0 6-2 6-5.5.08-1.25-.27-2.48-1-3.5.28-1.15.28-2.35 0-3.5 0 0-1 0-3 1.5-2.64-.5-5.36-.5-8 0C6 2 5 2 5 2c-.3 1.15-.3 2.35 0 3.5A5.403 5.403 0 0 0 4 9c0 3.5 3 5.5 6 5.5-.39.49-.68 1.05-.85 1.65S8.93 17.38 9 18v4"/><path d="M9 18c-4.51 2-5-2-7-2"/></symbol><symbol id="linkedin" fill="none" stroke="currentColor" stroke-linecap="round" stroke-linejoin="round" stroke-width="2" viewBox="0 0 24 24"><path d="M16 8a6 6 0 0 1 6 6v7h-4v-7a2 2 0 0 0-2-2 2 2 0 0 0-2 2v7h-4v-7a6 6 0 0 1 6-6M2 9h4v12H2z"/><circle cx="4" cy="4" r="2"/></symbol><symbol id="log-in" fill="none" stroke="currentColor" stroke-linecap="round" stroke-linejoin="round" stroke-width="2" viewBox="0 0 24 24"><path d="M15 3h4a2 2 0 0 1 2 2v14a2 2 0 0 1-2 2h-4M10 17l5-5-5-5M15 12H3"/></symbol><symbol id="log-out" fill="none" stroke="currentColor" stroke-linecap="round" stroke-linejoin="round" stroke-width="2" viewBox="0 0 24 24"><path d="M9 21H5a2 2 0 0 1-2-2V5a2 2 0 0 1 2-2h4M16 17l5-5-5-5M21 12H9"/></symbol><symbol id="scroll" fill="none" stroke="currentColor" stroke-linecap="round" stroke-linejoin="round" stroke-width="2" viewBox="0 0 24 24"><path d="M19 17V5a2 2 0 0 0-2-2H4"/><path d="M8 21h12a2 2 0 0 0 2-2v-1a1 1 0 0 0-1-1H11a1 1 0 0 0-1 1v1a2 2 0 1 1-4 0V5a2 2 0 1 0-4 0v2a1 1 0 0 0 1 1h3"/></symbol><symbol id="users" fill="none" stroke="currentColor" stroke-linecap="round" stroke-linejoin="round" stroke-width="2" viewBox="0 0 24 24"><path d="M16 21v-2a4 4 0 0 0-4-4H6a4 4 0 0 0-4 4v2"/><circle cx="9" cy="7" r="4"/><path d="M22 21v-2a4 4 0 0 0-3-3.87M16 3.13a4 4 0 0 1 0 7.75"/></symbol></defs></svg>