<svg xmlns="http://www.w3.org/2000/svg" width="0" height="0"><defs><symbol id="apple" fill="none" stroke="currentColor" stroke-linecap="round" stroke-linejoin="round" stroke-width="2" viewBox="0 0 24 24"><path d="M12 20.94c1.5 0 2.75 1.06 4 1.06 3 0 6-8 6-12.22A4.91 4.91 0 0 0 17 5c-2.22 0-4 1.44-5 2-1-.56-2.78-2-5-2a4.9 4.9 0 0 0-5 4.78C2 14 5 22 8 22c1.25 0 2.5-1.06 4-1.06"/><path d="M10 2c1 .5 2 2 2 5"/></symbol><symbol id="atom" fill="none" stroke="currentColor" stroke-linecap="round" stroke-linejoin="round" stroke-width="2" viewBox="0 0 24 24"><circle cx="12" cy="12" r="1"/><path d="M20.2 20.2c2.04-2.03.02-7.36-4.5-11.9-4.54-4.52-9.87-6.54-11.9-4.5-2.04 2.03-.02 7.36 4.5 11.9 4.54 4.52 9.87 6.54 11.9 4.5"/><path d="M15.7 15.7c4.52-4.54 6.54-9.87 4.5-11.9-2.03-2.04-7.36-.02-11.9 4.5-4.52 4.54-6.54 9.87-4.5 11.9 2.03 2.04 7.36.02 11.9-4.5"/></symbol><symbol id="audio-waveform" fill="none" stroke="currentColor" stroke-linecap="round" stroke-linejoin="round" stroke-width="2" viewBox="0 0 24 24"><path d="M2 13a2 2 0 0 0 2-2V7a2 2 0 0 1 4 0v13a2 2 0 0 0 4 0V4a2 2 0 0 1 4 0v13a2 2 0 0 0 4 0v-4a2 2 0 0 1 2-2"/></symbol><symbol id="axe" fill="none" stroke="currentColor" stroke-linecap="round" stroke-linejoin="round" stroke-width="2" viewBox="0 0 24 24"><path d="m14 12-8.5 8.5a2.12 2.12 0 1 1-3-3L11 9"/><path d="M15 13 9 7l4-4 6 6h3a8 8 0 0 1-7 7z"/></symbol><symbol id="book-a" fill="none" stroke="currentColor" stroke-linecap="round" stroke-linejoin="round" stroke-width="2" viewBox="0 0 24 24"><path d="M4 19.5v-15A2.5 2.5 0 0 1 6.5 2H20v20H6.5a2.5 2.5 0 0 1 0-5H20"/><path d="m8 13 4-7 4 7M9.1 11h5.7"/></symbol><symbol id="book-down" fill="none" stroke="currentColor" stroke-linecap="round" stroke-linejoin="round" stroke-width="2" viewBox="0 0 24 24"><path d="M4 19.5v-15A2.5 2.5 0 0 1 6.5 2H20v20H6.5a2.5 2.5 0 0 1 0-5H20M12 13V7"/><path d="m9 10 3 3 3-3"/></symbol><symbol id="book-image" fill="none" stroke="currentColor" stroke-linecap="round" stroke-linejoin="round" stroke-width="2" viewBox="0 0 24 24"><path d="M4 19.5v-15A2.5 2.5 0 0 1 6.5 2H20v20H6.5a2.5 2.5 0 0 1 0-5H20"/><circle cx="10" cy="8" r="2"/><path d="m20 13.7-2.1-2.1c-.8-.8-2-.8-2.8 0L9.7 17"/></symbol><symbol id="book-open-text" fill="none" stroke="currentColor" stroke-linecap="round" stroke-linejoin="round" stroke-width="2" viewBox="0 0 24 24"><path d="M2 3h6a4 4 0 0 1 4 4v14a3 3 0 0 0-3-3H2zM22 3h-6a4 4 0 0 0-4 4v14a3 3 0 0 1 3-3h7zM6 8h2M6 12h2M16 8h2M16 12h2"/></symbol><symbol id="book" fill="none" stroke="currentColor" stroke-linecap="round" stroke-linejoin="round" stroke-width="2" viewBox="0 0 24 24"><path d="M4 19.5v-15A2.5 2.5 0 0 1 6.5 2H20v20H6.5a2.5 2.5 0 0 1 0-5H20"/></symbol><symbol id="bookmark" fill="none" stroke="currentColor" stroke-linecap="round" stroke-linejoin="round" stroke-width="2" viewBox="0 0 24 24"><path d="m19 21-7-4-7 4V5a2 2 0 0 1 2-2h10a2 2 0 0 1 2 2z"/></symbol><symbol id="calculator" fill="none" stroke="currentColor" stroke-linecap="round" stroke-linejoin="round" stroke-width="2" viewBox="0 0 24 24"><rect width="16" height="20" x="4" y="2" rx="2"/><path d="M8 6h8M16 14v4M16 10h.01M12 10h.01M8 10h.01M12 14h.01M8 14h.01M12 18h.01M8 18h.01"/></symbol><symbol id="castle" fill="none" stroke="currentColor" stroke-linecap="round" stroke-linejoin="round" stroke-width="2" viewBox="0 0 24 24"><path d="M22 20v-9H2v9a2 2 0 0 0 2 2h16a2 2 0 0 0 2-2M18 11V4H6v7"/><path d="M15 22v-4a3 3 0 0 0-3-3v0a3 3 0 0 0-3 3v4M22 11V9M2 11V9M6 4V2M18 4V2M10 4V2M14 4V2"/></symbol><symbol id="chevron-down" fill="none" stroke="currentColor" stroke-linecap="round" stroke-linejoin="round" stroke-width="2" viewBox="0 0 24 24"><path d="m6 9 6 6 6-6"/></symbol><symbol id="chevron-first" fill="none" stroke="currentColor" stroke-linecap="round" stroke-linejoin="round" stroke-width="2" viewBox="0 0 24 24"><path d="m17 18-6-6 6-6M7 6v12"/></symbol><symbol id="chevron-last" fill="none" stroke="currentColor" stroke-linecap="round" stroke-linejoin="round" stroke-width="2" viewBox="0 0 24 24"><path d="m7 18 6-6-6-6M17 6v12"/></symbol><symbol id="chevron-left" fill="none" stroke="currentColor" stroke-linecap="round" stroke-linejoin="round" stroke-width="2" viewBox="0 0 24 24"><path d="m15 18-6-6 6-6"/></symbol><symbol id="chevron-right" fill="none" stroke="currentColor" stroke-linecap="round" stroke-linejoin="round" stroke-width="2" viewBox="0 0 24 24"><path d="m9 18 6-6-6-6"/></symbol><symbol id="chevron-up" fill="none" stroke="currentColor" stroke-linecap="round" stroke-linejoin="round" stroke-width="2" viewBox="0 0 24 24"><path d="m18 15-6-6-6 6"/></symbol><symbol id="chevrons-down-up" fill="none" stroke="currentColor" stroke-linecap="round" stroke-linejoin="round" stroke-width="2" viewBox="0 0 24 24"><path d="m7 20 5-5 5 5M7 4l5 5 5-5"/></symbol><symbol id="chevrons-down" fill="none" stroke="currentColor" stroke-linecap="round" stroke-linejoin="round" stroke-width="2" viewBox="0 0 24 24"><path d="m7 6 5 5 5-5M7 13l5 5 5-5"/></symbol><symbol id="chevrons-left-right" fill="none" stroke="currentColor" stroke-linecap="round" stroke-linejoin="round" stroke-width="2" viewBox="0 0 24 24"><path d="m9 7-5 5 5 5M15 7l5 5-5 5"/></symbol><symbol id="chevrons-left" fill="none" stroke="currentColor" stroke-linecap="round" stroke-linejoin="round" stroke-width="2" viewBox="0 0 24 24"><path d="m11 17-5-5 5-5M18 17l-5-5 5-5"/></symbol><symbol id="chevrons-right-left" fill="none" stroke="currentColor" stroke-linecap="round" stroke-linejoin="round" stroke-width="2" viewBox="0 0 24 24"><path d="m20 17-5-5 5-5M4 17l5-5-5-5"/></symbol><symbol id="chevrons-right" fill="none" stroke="currentColor" stroke-linecap="round" stroke-linejoin="round" stroke-width="2" viewBox="0 0 24 24"><path d="m6 17 5-5-5-5M13 17l5-5-5-5"/></symbol><symbol id="chevrons-up-down" fill="none" stroke="currentColor" stroke-linecap="round" stroke-linejoin="round" stroke-width="2" viewBox="0 0 24 24"><path d="m7 15 5 5 5-5M7 9l5-5 5 5"/></symbol><symbol id="chevrons-up" fill="none" stroke="currentColor" stroke-linecap="round" stroke-linejoin="round" stroke-width="2" viewBox="0 0 24 24"><path d="m17 11-5-5-5 5M17 18l-5-5-5 5"/></symbol><symbol id="clipboard-copy" fill="none" stroke="currentColor" stroke-linecap="round" stroke-linejoin="round" stroke-width="2" viewBox="0 0 24 24"><rect width="8" height="4" x="8" y="2" rx="1" ry="1"/><path d="M8 4H6a2 2 0 0 0-2 2v14a2 2 0 0 0 2 2h12a2 2 0 0 0 2-2v-2M16 4h2a2 2 0 0 1 2 2v4M21 14H11"/><path d="m15 10-4 4 4 4"/></symbol><symbol id="code" fill="none" stroke="currentColor" stroke-linecap="round" stroke-linejoin="round" stroke-width="2" viewBox="0 0 24 24"><path d="m16 18 6-6-6-6M8 6l-6 6 6 6"/></symbol><symbol id="coffee" fill="none" stroke="currentColor" stroke-linecap="round" stroke-linejoin="round" stroke-width="2" viewBox="0 0 24 24"><path d="M10 2v2M14 2v2M16 8a1 1 0 0 1 1 1v8a4 4 0 0 1-4 4H7a4 4 0 0 1-4-4V9a1 1 0 0 1 1-1h14a4 4 0 1 1 0 8h-1M6 2v2"/></symbol><symbol id="color-pal" fill="none" viewBox="0 0 1452 524"><path fill="#111" d="M0 0h1452v524H0z"/><path fill="#08140f" d="M128 192h96v48h-96z"/><path fill="#091c15" d="M228 192h96v48h-96z"/><path fill="#00301e" d="M328 192h96v48h-96z"/><path fill="#003e28" d="M428 192h96v48h-96z"/><path fill="#004c32" d="M528 192h96v48h-96z"/><path fill="#005b3e" d="M628 192h96v48h-96z"/><path fill="#006f4c" d="M728 192h96v48h-96z"/><path fill="#00865d" d="M828 192h96v48h-96z"/><path fill="#2fffbf" d="M928 192h96v48h-96z"/><path fill="#10f5b5" d="M1028 192h96v48h-96z"/><path fill="#00dfa1" d="M1128 192h96v48h-96z"/><path fill="#a4fed8" d="M1228 192h96v48h-96z"/><path fill="#00d10004" d="M128 244h96v48h-96z"/><path fill="#00fb670c" d="M228 244h96v48h-96z"/><path fill="#00fa7322" d="M328 244h96v48h-96z"/><path fill="#00fc8931" d="M428 244h96v48h-96z"/><path fill="#00fd9540" d="M528 244h96v48h-96z"/><path fill="#00fda050" d="M628 244h96v48h-96z"/><path fill="#00ffa665" d="M728 244h96v48h-96z"/><path fill="#00fdab7e" d="M828 244h96v48h-96z"/><path fill="#2fffbf" d="M928 244h96v48h-96z"/><path fill="#10febbf5" d="M1028 244h96v48h-96z"/><path fill="#00ffb8dd" d="M1128 244h96v48h-96z"/><path fill="#a5ffd9fe" d="M1228 244h96v48h-96z"/><path fill="#111113" d="M128 296h96v48h-96z"/><path fill="#19191b" d="M228 296h96v48h-96z"/><path fill="#222325" d="M328 296h96v48h-96z"/><path fill="#292a2e" d="M428 296h96v48h-96z"/><path fill="#303136" d="M528 296h96v48h-96z"/><path fill="#393a40" d="M628 296h96v48h-96z"/><path fill="#46484f" d="M728 296h96v48h-96z"/><path fill="#5f606a" d="M828 296h96v48h-96z"/><path fill="#6c6e79" d="M928 296h96v48h-96z"/><path fill="#797b86" d="M1028 296h96v48h-96z"/><path fill="#b2b3bd" d="M1128 296h96v48h-96z"/><path fill="#eeeef0" d="M1228 296h96v48h-96z"/><path fill="#1111bb03" d="M128 348h96v48h-96z"/><path fill="#cbcbf90b" d="M228 348h96v48h-96z"/><path fill="#d6e2f916" d="M328 348h96v48h-96z"/><path fill="#d1d9f920" d="M428 348h96v48h-96z"/><path fill="#d7ddfd28" d="M528 348h96v48h-96z"/><path fill="#d9defc33" d="M628 348h96v48h-96z"/><path fill="#dae2fd43" d="M728 348h96v48h-96z"/><path fill="#e0e3fd60" d="M828 348h96v48h-96z"/><path fill="#e0e4fd70" d="M928 348h96v48h-96z"/><path fill="#e3e7fd7e" d="M1028 348h96v48h-96z"/><path fill="#eff0feb9" d="M1128 348h96v48h-96z"/><path fill="#fdfdffef" d="M1228 348h96v48h-96z"/><path fill="#b2b3bd" d="M1273.97 167.273V176h-1.06v-7.619h-.05l-2.13 1.414v-1.073l2.18-1.449zm2.51 8.727v-.767l2.88-3.153c.34-.37.62-.691.84-.964.22-.275.38-.534.48-.775.11-.244.17-.5.17-.767 0-.307-.08-.573-.23-.797-.14-.224-.34-.398-.59-.52-.26-.122-.54-.183-.86-.183-.33 0-.62.069-.87.209-.25.136-.44.328-.58.575-.13.247-.2.537-.2.869h-1c0-.511.11-.96.35-1.346.24-.387.56-.688.96-.904q.615-.324 1.38-.324c.51 0 .96.108 1.36.324.39.216.7.507.93.874.22.366.33.774.33 1.223 0 .321-.05.635-.17.942-.11.304-.31.643-.6 1.018-.28.372-.67.827-1.17 1.364l-1.96 2.096v.068h4.06V176zM1173.97 167.273V176h-1.06v-7.619h-.05l-2.13 1.414v-1.073l2.18-1.449zm5.58 0V176h-1.06v-7.619h-.05l-2.13 1.414v-1.073l2.18-1.449zM1072.97 167.273V176h-1.06v-7.619h-.05l-2.13 1.414v-1.073l2.18-1.449zm5.36 8.846c-.64 0-1.19-.174-1.64-.524-.45-.352-.8-.862-1.04-1.53-.24-.67-.36-1.48-.36-2.429 0-.943.12-1.748.36-2.416.24-.67.59-1.182 1.04-1.534.46-.355 1-.533 1.64-.533.63 0 1.18.178 1.63.533.45.352.8.864 1.04 1.534.24.668.36 1.473.36 2.416 0 .949-.12 1.759-.36 2.429-.23.668-.58 1.178-1.03 1.53-.45.35-1 .524-1.64.524m0-.937c.63 0 1.13-.307 1.48-.921.35-.613.53-1.488.53-2.625 0-.755-.08-1.399-.24-1.93q-.24-.7965-.69-1.215-.45-.417-1.08-.417c-.63 0-1.13.311-1.48.933-.36.619-.53 1.496-.53 2.629q0 1.134.24 1.926c.15.529.38.931.68 1.206.3.276.66.414 1.09.414M975.682 167.153c.358.003.716.071 1.074.205.358.133.684.355.98.665q.4425.4605.711 1.257c.179.531.269 1.197.269 1.998q0 1.164-.222 2.067c-.145.6-.355 1.105-.63 1.517-.273.412-.605.725-.998.938-.389.213-.829.319-1.321.319-.488 0-.924-.096-1.308-.289-.38-.196-.693-.468-.937-.814q-.363-.525-.465-1.215h1.04q.141.6015.558.993c.281.259.652.388 1.112.388.674 0 1.205-.294 1.594-.882q.588-.882.588-2.493h-.068q-.2385.357-.567.618c-.218.173-.461.307-.728.4-.267.094-.551.141-.853.141-.5 0-.958-.124-1.376-.371-.415-.25-.747-.592-.997-1.027-.247-.437-.371-.937-.371-1.5 0-.534.119-1.023.358-1.466.241-.446.58-.801 1.014-1.065.438-.264.952-.392 1.543-.384m0 .938c-.358 0-.681.089-.968.268-.284.177-.509.415-.677.716-.165.299-.247.63-.247.993 0 .364.079.695.238.993.162.296.383.531.661.707.281.174.601.26.959.26.27 0 .521-.052.754-.157.233-.108.436-.255.609-.439.177-.188.314-.399.414-.635.099-.239.149-.487.149-.746 0-.341-.083-.66-.247-.959-.162-.298-.387-.539-.674-.724-.284-.185-.608-.277-.971-.277M875.699 176.119c-.585 0-1.102-.103-1.551-.311-.446-.21-.794-.498-1.044-.865-.25-.369-.374-.79-.371-1.261-.003-.37.07-.71.217-1.023.148-.315.35-.578.605-.788.259-.213.547-.348.865-.405v-.051c-.417-.108-.75-.343-.997-.703-.247-.364-.369-.777-.366-1.24-.003-.444.109-.84.336-1.189.228-.35.54-.625.938-.827q.6015-.303 1.368-.303c.506 0 .957.101 1.355.303s.71.477.937.827c.231.349.347.745.35 1.189-.003.463-.129.876-.379 1.24-.248.36-.576.595-.985.703v.051c.316.057.6.192.853.405.252.21.454.473.605.788.15.313.227.653.23 1.023-.003.471-.131.892-.384 1.261-.25.367-.598.655-1.044.865-.443.208-.956.311-1.538.311m0-.937q.5925 0 1.023-.192c.287-.128.508-.308.664-.541.157-.233.236-.506.239-.818-.003-.33-.088-.621-.256-.874-.167-.253-.396-.452-.686-.596-.287-.145-.615-.218-.984-.218-.372 0-.705.073-.997.218-.29.144-.519.343-.686.596-.165.253-.246.544-.243.874-.003.312.072.585.226.818.156.233.379.413.669.541.289.128.633.192 1.031.192m0-4.142c.312 0 .589-.063.831-.188.244-.125.436-.299.575-.524.139-.224.21-.487.213-.788-.003-.296-.072-.553-.209-.772-.136-.221-.325-.392-.566-.511-.242-.122-.523-.183-.844-.183-.327 0-.612.061-.857.183-.244.119-.433.29-.566.511-.134.219-.199.476-.196.772-.003.301.063.564.2.788.139.225.331.399.575.524s.526.188.844.188M774.176 176l3.904-7.722v-.068h-4.5v-.937h5.59v.988L775.284 176zM675.801 176.119c-.358-.005-.716-.074-1.074-.204-.358-.131-.684-.351-.98-.661-.295-.312-.533-.734-.711-1.265-.179-.534-.269-1.205-.269-2.012 0-.772.072-1.457.217-2.054.145-.599.355-1.103.631-1.512.276-.412.608-.725.997-.938.392-.213.834-.32 1.326-.32.488 0 .923.098 1.303.294.384.194.697.464.938.81.241.347.398.746.469 1.198h-1.04c-.097-.393-.284-.718-.563-.976-.278-.259-.647-.388-1.107-.388-.677 0-1.209.294-1.599.882-.386.588-.58 1.413-.583 2.476h.068q.2385-.363.567-.618c.221-.173.466-.307.733-.401.267-.093.549-.14.848-.14.5 0 .957.125 1.372.375.415.247.747.589.997 1.027.25.434.375.933.375 1.496 0 .539-.121 1.034-.362 1.482-.242.446-.581.802-1.019 1.066-.434.261-.946.389-1.534.383m0-.937c.358 0 .679-.09.963-.269q.4305-.2685.678-.72c.167-.301.251-.636.251-1.005 0-.361-.081-.689-.243-.985-.159-.298-.379-.535-.66-.712-.279-.176-.597-.264-.955-.264-.27 0-.521.054-.754.162-.233.105-.438.25-.614.435-.173.185-.309.396-.409.635-.099.236-.149.484-.149.746 0 .346.081.67.243.971.165.301.389.544.673.729.287.184.613.277.976.277M575.631 176.119c-.5 0-.951-.099-1.351-.298-.401-.199-.722-.472-.963-.818-.242-.347-.374-.742-.397-1.185h1.023c.04.395.219.722.537.98.321.256.705.384 1.151.384q.537 0 .954-.252c.281-.167.502-.397.661-.69.162-.295.243-.629.243-1.001 0-.381-.084-.721-.252-1.019-.165-.301-.392-.538-.682-.711-.289-.174-.62-.262-.993-.265-.267-.003-.541.039-.822.124-.281.082-.513.189-.695.32l-.988-.12.528-4.295h4.534v.937h-3.647l-.307 2.574h.051c.179-.142.403-.26.673-.354.27-.093.551-.14.844-.14.534 0 1.01.128 1.428.383.42.253.75.6.988 1.04.242.44.362.943.362 1.509 0 .556-.125 1.054-.375 1.491-.247.435-.588.778-1.022 1.031-.435.25-.929.375-1.483.375M472.699 174.21v-.869l3.835-6.068h.631v1.346h-.426l-2.898 4.586v.068h5.165v.937zm4.108 1.79v-8.727h1.005V176zM375.852 176.119c-.562 0-1.064-.096-1.504-.289-.437-.194-.785-.462-1.044-.806-.256-.346-.395-.748-.418-1.206h1.074c.023.281.12.524.29.729.17.202.393.358.669.469.276.11.581.166.916.166.375 0 .708-.066.997-.196.29-.131.517-.313.682-.546s.247-.502.247-.809c0-.321-.079-.604-.238-.848-.159-.247-.392-.441-.699-.58s-.682-.209-1.125-.209H375v-.937h.699c.346 0 .65-.063.912-.188q.396-.1875.618-.528c.15-.227.226-.494.226-.801 0-.296-.066-.553-.196-.772-.131-.218-.316-.389-.554-.511-.236-.122-.515-.183-.836-.183-.301 0-.585.055-.852.166-.264.108-.48.266-.648.473-.167.205-.258.452-.272.742h-1.023c.017-.458.155-.858.413-1.202q.3885-.5205 1.014-.81c.421-.193.883-.29 1.385-.29.54 0 1.003.11 1.39.329.386.215.683.501.89.856.208.355.311.739.311 1.151 0 .491-.129.91-.388 1.257q-.3825.519-1.044.72v.068c.552.091.982.325 1.292.703.309.375.464.84.464 1.394 0 .474-.129.9-.388 1.278-.255.375-.605.671-1.048.886-.443.216-.947.324-1.513.324M272.903 176v-.767l2.881-3.153c.338-.37.617-.691.835-.964.219-.275.381-.534.486-.775.108-.244.162-.5.162-.767 0-.307-.074-.573-.222-.797-.144-.224-.343-.398-.596-.52q-.3795-.183-.852-.183c-.336 0-.628.069-.878.209-.247.136-.439.328-.576.575-.133.247-.2.537-.2.869h-1.005c0-.511.117-.96.353-1.346.236-.387.557-.688.963-.904q.6135-.324 1.377-.324.7665 0 1.359.324c.395.216.705.507.929.874.224.366.337.774.337 1.223 0 .321-.059.635-.175.942-.114.304-.313.643-.597 1.018-.281.372-.672.827-1.172 1.364l-1.96 2.096v.068h4.057V176zM176.972 167.273V176h-1.057v-7.619h-.051l-2.131 1.414v-1.073l2.182-1.449zM1184.67 136h-1.11l3.21-8.727h1.09l3.2 8.727h-1.1l-2.61-7.347h-.07zm.41-3.409h4.47v.937h-4.47zm9.87 3.545c-.62 0-1.15-.145-1.59-.434-.44-.29-.78-.689-1.02-1.198q-.36-.762-.36-1.743c0-.664.12-1.251.37-1.76.24-.511.59-.91 1.03-1.197.44-.29.96-.435 1.55-.435.46 0 .87.086 1.24.256s.68.409.91.716c.24.307.38.665.44 1.074h-1.01c-.07-.299-.24-.563-.51-.793-.26-.233-.61-.349-1.05-.349-.4 0-.74.102-1.03.307-.3.201-.53.487-.69.856-.16.367-.24.797-.24 1.291 0 .506.08.946.24 1.321s.38.666.68.874c.29.207.64.311 1.04.311.26 0 .5-.045.71-.136s.39-.222.54-.392c.15-.171.25-.375.31-.614h1.01q-.09.579-.42 1.044c-.22.307-.52.551-.88.733-.37.179-.79.268-1.27.268m6.7 0c-.61 0-1.14-.145-1.59-.434-.44-.29-.78-.689-1.02-1.198q-.36-.762-.36-1.743c0-.664.13-1.251.37-1.76.25-.511.59-.91 1.03-1.197.44-.29.96-.435 1.55-.435.46 0 .88.086 1.25.256s.67.409.9.716c.24.307.39.665.44 1.074h-1c-.08-.299-.25-.563-.51-.793-.26-.233-.62-.349-1.06-.349-.39 0-.74.102-1.03.307-.29.201-.52.487-.69.856-.16.367-.24.797-.24 1.291 0 .506.08.946.24 1.321s.39.666.68.874c.3.207.64.311 1.04.311.26 0 .5-.045.71-.136s.39-.222.54-.392c.15-.171.26-.375.32-.614h1q-.075.579-.42 1.044c-.22.307-.51.551-.88.733-.36.179-.79.268-1.27.268m6.79 0c-.63 0-1.18-.139-1.63-.417-.46-.281-.81-.674-1.06-1.176-.24-.506-.36-1.094-.36-1.765 0-.67.12-1.261.36-1.772.25-.515.59-.915 1.03-1.202q.675-.435 1.56-.435c.34 0 .67.057 1.01.171.33.113.63.298.9.554.28.253.49.588.66 1.005.16.418.24.932.24 1.543v.426h-5.05v-.869h4.03c0-.369-.08-.699-.23-.989-.14-.29-.35-.518-.62-.686-.27-.167-.58-.251-.94-.251-.4 0-.75.099-1.04.298-.29.196-.52.452-.67.767q-.24.4725-.24 1.014v.58c0 .494.09.913.26 1.257q.255.5115.72.78c.31.176.66.264 1.07.264.26 0 .5-.037.71-.111.22-.077.41-.19.56-.341.16-.153.28-.344.36-.571l.98.273c-.11.329-.28.619-.52.869-.24.247-.54.441-.89.58q-.54.204-1.2.204m8.87-5.216-.9.256c-.06-.15-.14-.297-.25-.439-.11-.145-.26-.264-.44-.358-.19-.093-.43-.14-.72-.14-.4 0-.74.092-1 .277-.27.181-.4.413-.4.694 0 .25.09.448.27.593.18.144.47.265.85.362l.98.238c.58.142 1.02.36 1.3.652.29.29.43.664.43 1.121 0 .375-.1.71-.32 1.006-.21.295-.51.528-.89.699-.39.17-.83.255-1.34.255-.67 0-1.22-.145-1.66-.434-.44-.29-.72-.713-.83-1.27l.95-.239c.09.352.27.617.52.793s.59.264 1 .264c.47 0 .84-.099 1.12-.298.27-.202.41-.443.41-.725 0-.227-.08-.417-.23-.571-.16-.156-.41-.272-.74-.349l-1.09-.256q-.9-.213-1.32-.66c-.28-.302-.42-.678-.42-1.13 0-.369.11-.696.31-.98.21-.284.5-.507.86-.669s.78-.243 1.24-.243c.64 0 1.15.142 1.52.426.37.285.64.66.79 1.125m6.27 0-.9.256c-.06-.15-.14-.297-.25-.439-.11-.145-.26-.264-.44-.358-.19-.093-.43-.14-.72-.14-.4 0-.74.092-1.01.277-.26.181-.39.413-.39.694 0 .25.09.448.27.593.18.144.47.265.85.362l.97.238c.59.142 1.03.36 1.31.652.29.29.43.664.43 1.121 0 .375-.1.71-.32 1.006q-.315.4425-.9.699c-.38.17-.82.255-1.33.255-.67 0-1.22-.145-1.66-.434-.44-.29-.72-.713-.83-1.27l.95-.239c.09.352.27.617.52.793s.59.264 1 .264c.47 0 .84-.099 1.12-.298.27-.202.41-.443.41-.725 0-.227-.08-.417-.23-.571-.16-.156-.41-.272-.74-.349l-1.09-.256q-.9-.213-1.32-.66c-.28-.302-.42-.678-.42-1.13 0-.369.11-.696.31-.98.21-.284.5-.507.86-.669s.78-.243 1.24-.243c.64 0 1.15.142 1.52.426.37.285.64.66.79 1.125m1.64 5.08v-6.545h1V136zm.51-7.636q-.3 0-.51-.201c-.14-.133-.21-.294-.21-.481 0-.188.07-.348.21-.482.14-.133.31-.2.51-.2.19 0 .36.067.5.2.14.134.21.294.21.482 0 .187-.07.348-.21.481-.14.134-.31.201-.5.201m2.47 7.636v-8.727h1.01v3.221h.08c.08-.113.18-.258.31-.434.13-.179.32-.338.57-.478.25-.142.59-.213 1.01-.213.56 0 1.04.138 1.46.414.42.275.75.666.99 1.172.23.505.35 1.102.35 1.789 0 .694-.12 1.294-.35 1.803-.24.506-.57.898-.98 1.176-.42.276-.9.413-1.45.413-.42 0-.76-.069-1.01-.208-.25-.142-.45-.303-.58-.482-.14-.182-.24-.332-.32-.452h-.12V136zm.99-3.273c0 .495.07.931.22 1.309q.21.5625.63.882.42.315 1.02.315c.43 0 .78-.111 1.06-.332.28-.225.49-.526.64-.904.14-.381.21-.804.21-1.27 0-.46-.07-.875-.21-1.244q-.21-.558-.63-.882c-.29-.219-.64-.328-1.07-.328-.4 0-.75.103-1.03.311q-.405.306-.63.861c-.14.366-.21.794-.21 1.282m7.33-5.454V136h-1v-8.727zm4.59 8.863c-.63 0-1.17-.139-1.63-.417-.46-.281-.81-.674-1.05-1.176-.25-.506-.37-1.094-.37-1.765 0-.67.12-1.261.37-1.772.24-.515.59-.915 1.03-1.202.44-.29.96-.435 1.55-.435.34 0 .68.057 1.01.171.33.113.63.298.91.554.27.253.49.588.65 1.005.16.418.24.932.24 1.543v.426h-5.05v-.869h4.03c0-.369-.08-.699-.22-.989-.15-.29-.36-.518-.63-.686-.26-.167-.58-.251-.94-.251-.4 0-.75.099-1.04.298-.29.196-.51.452-.67.767q-.24.4725-.24 1.014v.58c0 .494.09.913.26 1.257q.255.5115.72.78c.31.176.66.264 1.07.264q.39 0 .72-.111c.21-.077.4-.19.55-.341.16-.153.28-.344.37-.571l.97.273c-.1.329-.28.619-.52.869-.24.247-.54.441-.89.58q-.54.204-1.2.204m10.46-6.681v.852h-3.39v-.852zm-2.4-1.569h1v6.239c0 .284.05.497.13.639.08.139.19.233.32.281.13.046.28.069.42.069.11 0 .21-.006.28-.017.07-.015.12-.026.17-.035l.2.904c-.07.025-.16.051-.28.077-.13.028-.28.042-.47.042-.28 0-.56-.061-.83-.183s-.5-.308-.68-.558c-.17-.25-.26-.566-.26-.946zm6.59 8.25c-.63 0-1.18-.139-1.63-.417-.46-.281-.81-.674-1.06-1.176-.24-.506-.36-1.094-.36-1.765 0-.67.12-1.261.36-1.772.25-.515.59-.915 1.04-1.202.44-.29.96-.435 1.55-.435.34 0 .67.057 1.01.171.33.113.63.298.9.554.28.253.49.588.66 1.005.16.418.24.932.24 1.543v.426h-5.05v-.869h4.03c0-.369-.08-.699-.23-.989-.14-.29-.35-.518-.62-.686-.26-.167-.58-.251-.94-.251-.4 0-.75.099-1.04.298-.29.196-.52.452-.67.767q-.24.4725-.24 1.014v.58c0 .494.09.913.26 1.257q.255.5115.72.78c.31.176.66.264 1.07.264.26 0 .5-.037.71-.111.22-.077.41-.19.56-.341.16-.153.28-.344.36-.571l.98.273c-.11.329-.28.619-.52.869-.24.247-.54.441-.89.58q-.54.204-1.2.204m4.81-6.681 1.57 2.676 1.57-2.676h1.16l-2.12 3.272 2.12 3.273h-1.16l-1.57-2.54-1.57 2.54h-1.16l2.08-3.273-2.08-3.272zm8.58 0v.852h-3.39v-.852zm-2.4-1.569h1v6.239c0 .284.04.497.13.639.08.139.19.233.32.281q.195.069.42.069c.11 0 .2-.006.27-.017.08-.015.13-.026.17-.035l.21.904c-.07.025-.16.051-.29.077-.12.028-.27.042-.46.042q-.42 0-.84-.183c-.27-.122-.49-.308-.67-.558s-.26-.566-.26-.946zM998.859 129.455c-.051-.432-.259-.767-.622-1.006-.364-.239-.81-.358-1.338-.358-.387 0-.725.062-1.015.187-.287.125-.511.297-.673.516-.159.219-.239.467-.239.746 0 .233.056.433.167.601.113.164.258.302.434.413.176.108.361.197.554.268.193.069.371.124.533.167l.886.238c.228.06.48.142.759.247.281.106.55.249.805.431q.3885.2685.639.69c.168.281.251.627.251 1.036 0 .471-.123.897-.37 1.278-.244.381-.602.683-1.074.908-.468.224-1.038.336-1.709.336-.625 0-1.166-.1-1.623-.302-.455-.202-.813-.483-1.074-.844-.258-.361-.405-.78-.439-1.257h1.091c.028.33.139.602.332.818.196.213.444.372.742.477.301.103.625.154.971.154.404 0 .766-.065 1.087-.196.321-.134.575-.318.763-.554.187-.239.281-.517.281-.835q0-.435-.243-.708c-.162-.182-.375-.329-.639-.443s-.55-.213-.856-.298l-1.074-.307q-1.023-.294-1.62-.84c-.397-.363-.596-.839-.596-1.427 0-.489.132-.915.396-1.279q.4005-.549 1.074-.852c.452-.204.956-.307 1.513-.307q.843 0 1.5.303c.437.199.784.472 1.039.818.259.347.395.74.41 1.181zm5.401 6.681c-.59 0-1.11-.14-1.55-.422-.45-.281-.79-.674-1.04-1.18s-.37-1.097-.37-1.773c0-.681.12-1.277.37-1.785.25-.509.59-.904 1.04-1.185.44-.281.96-.422 1.55-.422s1.11.141 1.55.422c.45.281.79.676 1.04 1.185.25.508.38 1.104.38 1.785 0 .676-.13 1.267-.38 1.773s-.59.899-1.04 1.18c-.44.282-.96.422-1.55.422m0-.903q.675 0 1.11-.345c.29-.23.5-.533.64-.908s.21-.781.21-1.219c0-.437-.07-.845-.21-1.223-.14-.377-.35-.683-.64-.916s-.66-.349-1.11-.349-.82.116-1.11.349-.5.539-.64.916c-.14.378-.21.786-.21 1.223 0 .438.07.844.21 1.219s.35.678.64.908q.435.345 1.11.345m5.51-7.96V136h-1.01v-8.727zm1.84 8.727v-6.545h1.01V136zm.51-7.636q-.285 0-.51-.201c-.14-.133-.2-.294-.2-.481 0-.188.06-.348.2-.482.15-.133.32-.2.51-.2.2 0 .36.067.5.2.15.134.22.294.22.482 0 .187-.07.348-.22.481-.14.134-.3.201-.5.201m4.81 7.772c-.55 0-1.03-.137-1.45-.413-.41-.278-.74-.67-.98-1.176-.23-.509-.35-1.109-.35-1.803 0-.687.12-1.284.35-1.789.24-.506.57-.897.99-1.172.42-.276.91-.414 1.46-.414.42 0 .76.071 1.01.213.25.14.44.299.57.478.13.176.23.321.31.434h.08v-3.221h1.01V136h-.97v-1.006h-.12c-.08.12-.18.27-.32.452-.13.179-.33.34-.58.482-.25.139-.59.208-1.01.208m.14-.903q.6 0 1.02-.315.42-.3195.63-.882c.15-.378.22-.814.22-1.309 0-.488-.07-.916-.21-1.282q-.21-.555-.63-.861c-.28-.208-.63-.311-1.03-.311-.43 0-.79.109-1.07.328q-.42.324-.63.882c-.14.369-.21.784-.21 1.244 0 .466.07.889.21 1.27.14.378.36.679.64.904.28.221.64.332 1.06.332m10.87.903c-.61 0-1.14-.145-1.58-.434-.44-.29-.78-.689-1.02-1.198q-.36-.762-.36-1.743c0-.664.12-1.251.37-1.76.24-.511.59-.91 1.03-1.197.44-.29.96-.435 1.55-.435.46 0 .87.086 1.24.256s.67.409.91.716.38.665.44 1.074h-1.01c-.07-.299-.24-.563-.51-.793-.26-.233-.61-.349-1.06-.349-.39 0-.73.102-1.03.307-.29.201-.52.487-.68.856-.16.367-.25.797-.25 1.291 0 .506.08.946.24 1.321.17.375.39.666.69.874.29.207.64.311 1.03.311.27 0 .5-.045.72-.136.21-.091.39-.222.54-.392.15-.171.25-.375.31-.614h1.01q-.09.579-.42 1.044c-.22.307-.52.551-.89.733-.36.179-.78.268-1.27.268m6.71 0c-.59 0-1.11-.14-1.56-.422-.44-.281-.79-.674-1.04-1.18-.24-.506-.37-1.097-.37-1.773 0-.681.13-1.277.37-1.785.25-.509.6-.904 1.04-1.185.45-.281.97-.422 1.56-.422s1.11.141 1.55.422c.45.281.79.676 1.04 1.185.25.508.37 1.104.37 1.785 0 .676-.12 1.267-.37 1.773s-.59.899-1.04 1.18c-.44.282-.96.422-1.55.422m0-.903q.675 0 1.11-.345c.29-.23.5-.533.64-.908s.21-.781.21-1.219c0-.437-.07-.845-.21-1.223-.14-.377-.35-.683-.64-.916s-.66-.349-1.11-.349-.82.116-1.11.349-.5.539-.64.916c-.14.378-.21.786-.21 1.223 0 .438.07.844.21 1.219s.35.678.64.908q.435.345 1.11.345m5.5-7.96V136h-1v-8.727zm4.51 8.863c-.6 0-1.11-.14-1.56-.422-.44-.281-.79-.674-1.04-1.18s-.37-1.097-.37-1.773c0-.681.12-1.277.37-1.785.25-.509.6-.904 1.04-1.185.45-.281.96-.422 1.56-.422.59 0 1.1.141 1.55.422.44.281.79.676 1.04 1.185.25.508.37 1.104.37 1.785 0 .676-.12 1.267-.37 1.773s-.6.899-1.04 1.18c-.45.282-.96.422-1.55.422m0-.903c.44 0 .81-.115 1.1-.345s.51-.533.65-.908.21-.781.21-1.219c0-.437-.07-.845-.21-1.223-.14-.377-.36-.683-.65-.916s-.66-.349-1.1-.349c-.45 0-.82.116-1.11.349s-.51.539-.65.916c-.13.378-.2.786-.2 1.223 0 .438.07.844.2 1.219.14.375.36.678.65.908q.435.345 1.11.345m4.5.767v-6.545h.97v.988h.07c.12-.324.33-.586.64-.788.32-.202.67-.303 1.06-.303.07 0 .17.002.28.005.11.002.19.007.25.012v1.023c-.03-.008-.11-.021-.23-.038-.12-.02-.25-.03-.38-.03-.32 0-.61.067-.86.2-.24.131-.44.313-.58.546-.15.23-.22.492-.22.788V136zm9.1-5.08-.91.256c-.05-.15-.14-.297-.25-.439-.1-.145-.25-.264-.44-.358-.19-.093-.43-.14-.72-.14-.4 0-.73.092-1 .277-.27.181-.4.413-.4.694 0 .25.09.448.27.593.19.144.47.265.86.362l.97.238c.58.142 1.02.36 1.31.652.28.29.43.664.43 1.121 0 .375-.11.71-.33 1.006-.21.295-.51.528-.89.699-.38.17-.83.255-1.34.255-.67 0-1.22-.145-1.66-.434-.43-.29-.71-.713-.83-1.27l.96-.239c.09.352.26.617.51.793.26.176.59.264 1 .264.47 0 .84-.099 1.12-.298.28-.202.42-.443.42-.725 0-.227-.08-.417-.24-.571-.16-.156-.4-.272-.73-.349l-1.09-.256c-.6-.142-1.04-.362-1.33-.66-.27-.302-.41-.678-.41-1.13 0-.369.1-.696.31-.98s.49-.507.85-.669c.37-.162.78-.243 1.24-.243q.975 0 1.53.426c.37.285.63.66.79 1.125M710.494 136v-8.727h3.051c.608 0 1.11.105 1.505.315q.5925.3105.882.84c.193.349.29.737.29 1.163 0 .375-.067.685-.201.929-.13.244-.304.437-.52.579-.213.142-.444.248-.694.316v.085c.267.017.535.111.805.281.27.171.496.415.678.733s.272.708.272 1.168c0 .437-.099.831-.298 1.18q-.2985.525-.942.831c-.429.205-.987.307-1.674.307zm1.057-.938h2.097c.69 0 1.18-.133 1.47-.4.293-.27.439-.597.439-.98 0-.296-.075-.568-.226-.818-.151-.253-.365-.455-.643-.605-.279-.154-.608-.231-.989-.231h-2.148zm0-3.954h1.96c.319 0 .605-.063.861-.188.259-.125.463-.301.614-.528.153-.227.23-.494.23-.801 0-.384-.134-.709-.401-.976-.267-.27-.69-.405-1.27-.405h-1.994zm9.271 5.028c-.591 0-1.11-.14-1.556-.422-.443-.281-.789-.674-1.039-1.18-.248-.506-.371-1.097-.371-1.773 0-.681.123-1.277.371-1.785.25-.509.596-.904 1.039-1.185.446-.281.965-.422 1.556-.422s1.108.141 1.551.422c.446.281.792.676 1.04 1.185.25.508.375 1.104.375 1.785q0 1.014-.375 1.773c-.248.506-.594.899-1.04 1.18-.443.282-.96.422-1.551.422m0-.903c.449 0 .818-.115 1.108-.345.289-.23.504-.533.643-.908s.209-.781.209-1.219c0-.437-.07-.845-.209-1.223-.139-.377-.354-.683-.643-.916-.29-.233-.659-.349-1.108-.349s-.818.116-1.108.349-.504.539-.644.916c-.139.378-.208.786-.208 1.223 0 .438.069.844.208 1.219.14.375.354.678.644.908s.659.345 1.108.345m4.501.767v-6.545h.971v.988h.069c.119-.324.335-.586.647-.788.313-.202.665-.303 1.057-.303.074 0 .166.002.277.005.111.002.195.007.252.012v1.023c-.035-.008-.113-.021-.235-.038-.119-.02-.246-.03-.379-.03-.318 0-.602.067-.852.2q-.372.1965-.588.546c-.142.23-.214.492-.214.788V136zm6.737.136c-.545 0-1.027-.137-1.445-.413-.417-.278-.744-.67-.98-1.176-.235-.509-.353-1.109-.353-1.803 0-.687.118-1.284.353-1.789.236-.506.564-.897.985-1.172.42-.276.906-.414 1.457-.414.426 0 .763.071 1.01.213.25.14.44.299.571.478.134.176.237.321.311.434h.085v-3.221h1.006V136h-.972v-1.006h-.119c-.074.12-.179.27-.315.452-.137.179-.331.34-.584.482-.253.139-.59.208-1.01.208m.136-.903q.606 0 1.023-.315c.279-.213.49-.507.635-.882.145-.378.217-.814.217-1.309 0-.488-.071-.916-.213-1.282q-.213-.555-.63-.861c-.279-.208-.623-.311-1.032-.311-.426 0-.781.109-1.065.328-.281.216-.493.51-.635.882-.139.369-.209.784-.209 1.244 0 .466.071.889.213 1.27.145.378.358.679.64.904.284.221.636.332 1.056.332m7.59.903q-.9465 0-1.632-.417c-.455-.281-.806-.674-1.053-1.176-.244-.506-.366-1.094-.366-1.765 0-.67.122-1.261.366-1.772.247-.515.591-.915 1.031-1.202.444-.29.961-.435 1.552-.435.341 0 .677.057 1.01.171.332.113.634.298.907.554.273.253.49.588.652 1.005.162.418.243.932.243 1.543v.426h-5.045v-.869h4.022c0-.369-.073-.699-.221-.989-.145-.29-.352-.518-.622-.686-.267-.167-.583-.251-.946-.251-.401 0-.748.099-1.04.298-.29.196-.513.452-.669.767s-.235.653-.235 1.014v.58c0 .494.086.913.256 1.257q.2595.5115.72.78c.307.176.664.264 1.07.264.264 0 .503-.037.716-.111.216-.077.402-.19.558-.341.156-.153.277-.344.362-.571l.972.273c-.102.329-.274.619-.516.869-.241.247-.54.441-.895.58q-.5325.204-1.197.204m4.24-.136v-6.545h.972v.988h.068c.119-.324.335-.586.647-.788.313-.202.665-.303 1.057-.303.074 0 .166.002.277.005.111.002.195.007.252.012v1.023c-.034-.008-.113-.021-.235-.038-.119-.02-.245-.03-.379-.03-.318 0-.602.067-.852.2q-.3705.1965-.588.546c-.142.23-.213.492-.213.788V136zm9.101-5.08-.903.256c-.057-.15-.141-.297-.252-.439-.108-.145-.255-.264-.443-.358-.187-.093-.427-.14-.72-.14-.401 0-.734.092-1.001.277-.265.181-.397.413-.397.694 0 .25.091.448.273.593.182.144.466.265.852.362l.972.238c.585.142 1.021.36 1.308.652.287.29.43.664.43 1.121 0 .375-.108.71-.323 1.006-.213.295-.512.528-.895.699q-.576.255-1.338.255c-.668 0-1.221-.145-1.658-.434-.438-.29-.715-.713-.831-1.27l.955-.239c.09.352.262.617.515.793q.384.264 1.002.264c.468 0 .84-.099 1.116-.298.278-.202.418-.443.418-.725 0-.227-.08-.417-.239-.571-.159-.156-.403-.272-.733-.349l-1.091-.256c-.599-.142-1.04-.362-1.321-.66-.278-.302-.417-.678-.417-1.13 0-.369.103-.696.311-.98.21-.284.495-.507.856-.669q.546-.243 1.236-.243c.648 0 1.156.142 1.526.426q.558.4275.792 1.125m6.934 5.233c-.414 0-.791-.078-1.129-.234-.338-.159-.606-.388-.805-.686-.199-.301-.299-.665-.299-1.091q0-.5625.222-.912c.148-.236.345-.42.592-.554.248-.133.52-.233.819-.298.301-.068.603-.122.907-.162.398-.051.72-.09.968-.115.25-.029.431-.075.545-.141.117-.065.175-.179.175-.341v-.034c0-.42-.115-.747-.345-.98-.228-.233-.573-.349-1.036-.349-.48 0-.856.105-1.129.315s-.465.435-.575.673l-.955-.341c.17-.397.398-.707.682-.929.287-.224.599-.38.937-.468.341-.091.676-.137 1.006-.137.21 0 .452.026.724.077.276.048.542.149.797.303.259.153.473.385.644.694q.255.465.255 1.245V136h-1.005v-.886h-.051c-.069.142-.182.294-.341.456s-.371.299-.635.413-.587.17-.968.17m.154-.903c.398 0 .733-.078 1.006-.234.275-.157.482-.358.622-.605q.213-.372.213-.78v-.921c-.043.051-.137.098-.281.141-.143.04-.307.075-.495.106-.184.029-.365.054-.541.077-.173.02-.314.037-.422.051-.261.034-.506.09-.733.166-.224.074-.406.186-.545.337-.137.148-.205.349-.205.605 0 .35.129.614.388.793q.3915.264.993.264m5.688-3.188V136h-1.006v-6.545h.972v1.022h.085q.2295-.498.699-.801c.312-.204.716-.307 1.21-.307.443 0 .831.091 1.163.273.333.179.591.452.776.818.185.364.277.824.277 1.381V136h-1.006v-4.091c0-.514-.133-.915-.4-1.202-.267-.289-.634-.434-1.1-.434-.321 0-.608.069-.861.209-.25.139-.447.342-.592.609s-.217.591-.217.971m8.485 4.074c-.545 0-1.027-.137-1.444-.413q-.627-.417-.981-1.176c-.235-.509-.353-1.109-.353-1.803 0-.687.118-1.284.353-1.789.236-.506.564-.897.985-1.172.42-.276.906-.414 1.457-.414.426 0 .763.071 1.01.213.25.14.44.299.571.478.134.176.237.321.311.434h.085v-3.221h1.006V136h-.971v-1.006h-.12c-.074.12-.179.27-.315.452-.136.179-.331.34-.584.482-.253.139-.589.208-1.01.208m.137-.903c.403 0 .744-.105 1.022-.315.279-.213.49-.507.635-.882.145-.378.218-.814.218-1.309 0-.488-.072-.916-.214-1.282q-.213-.555-.63-.861c-.279-.208-.622-.311-1.031-.311-.427 0-.782.109-1.066.328-.281.216-.493.51-.635.882-.139.369-.209.784-.209 1.244 0 .466.071.889.213 1.27.145.378.358.679.64.904.284.221.636.332 1.057.332m12.856-4.313-.903.256c-.057-.15-.141-.297-.252-.439-.108-.145-.255-.264-.443-.358-.187-.093-.428-.14-.72-.14-.401 0-.735.092-1.002.277-.264.181-.396.413-.396.694 0 .25.091.448.273.593.182.144.466.265.852.362l.972.238c.585.142 1.021.36 1.308.652.287.29.43.664.43 1.121 0 .375-.108.71-.324 1.006q-.3195.4425-.894.699-.576.255-1.338.255c-.668 0-1.221-.145-1.658-.434-.438-.29-.715-.713-.831-1.27l.954-.239c.091.352.263.617.516.793.256.176.59.264 1.001.264.469 0 .841-.099 1.117-.298.278-.202.418-.443.418-.725 0-.227-.08-.417-.239-.571-.159-.156-.403-.272-.733-.349l-1.091-.256c-.599-.142-1.04-.362-1.321-.66-.278-.302-.418-.678-.418-1.13 0-.369.104-.696.312-.98.21-.284.495-.507.856-.669q.546-.243 1.236-.243c.648 0 1.156.142 1.525.426.373.285.637.66.793 1.125m4.378 5.216c-.631 0-1.175-.139-1.633-.417-.454-.281-.805-.674-1.052-1.176-.244-.506-.367-1.094-.367-1.765 0-.67.123-1.261.367-1.772.247-.515.591-.915 1.031-1.202q.6645-.435 1.551-.435c.341 0 .678.057 1.01.171.333.113.635.298.908.554.273.253.49.588.652 1.005.162.418.243.932.243 1.543v.426h-5.046v-.869h4.023c0-.369-.074-.699-.222-.989-.144-.29-.352-.518-.622-.686-.267-.167-.582-.251-.946-.251-.4 0-.747.099-1.04.298-.289.196-.512.452-.669.767q-.234.4725-.234 1.014v.58c0 .494.085.913.256 1.257q.2595.5115.72.78c.307.176.663.264 1.07.264.264 0 .502-.037.715-.111.216-.077.402-.19.559-.341.156-.153.277-.344.362-.571l.971.273c-.102.329-.274.619-.515.869-.242.247-.54.441-.895.58q-.5325.204-1.197.204m4.24 2.319v-9h.971v1.039h.119c.074-.113.177-.258.307-.434.134-.179.324-.338.571-.478.25-.142.588-.213 1.015-.213.551 0 1.036.138 1.457.414.42.275.749.666.984 1.172.236.505.354 1.102.354 1.789 0 .694-.118 1.294-.354 1.803-.235.506-.562.898-.98 1.176-.417.276-.899.413-1.444.413-.421 0-.758-.069-1.01-.208-.253-.142-.448-.303-.584-.482-.137-.182-.242-.332-.316-.452h-.085v3.461zm.988-5.728c0 .495.073.931.218 1.309.144.375.356.669.634.882q.4185.315 1.023.315c.421 0 .772-.111 1.053-.332.284-.225.497-.526.639-.904.145-.381.217-.804.217-1.27 0-.46-.071-.875-.213-1.244-.139-.372-.351-.666-.635-.882-.281-.219-.635-.328-1.061-.328-.409 0-.753.103-1.031.311-.278.204-.489.491-.631.861-.142.366-.213.794-.213 1.282m8.25 3.426c-.415 0-.791-.078-1.129-.234-.338-.159-.607-.388-.805-.686-.199-.301-.299-.665-.299-1.091q0-.5625.222-.912c.148-.236.345-.42.592-.554.247-.133.52-.233.818-.298.302-.068.604-.122.908-.162.398-.051.72-.09.967-.115.25-.029.432-.075.546-.141.116-.065.175-.179.175-.341v-.034c0-.42-.116-.747-.346-.98-.227-.233-.572-.349-1.035-.349-.48 0-.857.105-1.129.315-.273.21-.465.435-.576.673l-.954-.341c.17-.397.397-.707.682-.929.287-.224.599-.38.937-.468.341-.091.676-.137 1.006-.137.21 0 .451.026.724.077.276.048.541.149.797.303.259.153.473.385.644.694q.255.465.255 1.245V136h-1.005v-.886h-.052c-.068.142-.181.294-.341.456-.159.162-.37.299-.634.413-.265.114-.587.17-.968.17m.154-.903c.397 0 .733-.078 1.005-.234.276-.157.483-.358.622-.605.143-.248.214-.508.214-.78v-.921q-.0645.0765-.282.141c-.142.04-.307.075-.494.106-.185.029-.365.054-.541.077-.174.02-.314.037-.422.051-.261.034-.506.09-.733.166-.224.074-.406.186-.546.337-.136.148-.204.349-.204.605 0 .35.129.614.388.793q.3915.264.993.264m4.682.75v-6.545h.971v.988h.069c.119-.324.335-.586.647-.788.313-.202.665-.303 1.057-.303.074 0 .166.002.277.005.111.002.195.007.252.012v1.023c-.035-.008-.113-.021-.235-.038-.119-.02-.246-.03-.379-.03-.318 0-.602.067-.852.2q-.372.1965-.588.546c-.142.23-.214.492-.214.788V136zm6.391.153c-.415 0-.791-.078-1.129-.234-.339-.159-.607-.388-.806-.686-.199-.301-.298-.665-.298-1.091 0-.375.074-.679.221-.912.148-.236.346-.42.593-.554.247-.133.52-.233.818-.298.301-.068.604-.122.908-.162.397-.051.72-.09.967-.115.25-.029.432-.075.545-.141.117-.065.175-.179.175-.341v-.034c0-.42-.115-.747-.345-.98-.227-.233-.573-.349-1.036-.349-.48 0-.856.105-1.129.315s-.464.435-.575.673l-.955-.341c.171-.397.398-.707.682-.929.287-.224.6-.38.938-.468.341-.091.676-.137 1.005-.137.211 0 .452.026.725.077.275.048.541.149.797.303.258.153.473.385.643.694.171.31.256.725.256 1.245V136h-1.006v-.886h-.051c-.068.142-.182.294-.341.456s-.371.299-.635.413-.587.17-.967.17m.153-.903c.398 0 .733-.078 1.006-.234.275-.157.483-.358.622-.605q.213-.372.213-.78v-.921c-.043.051-.136.098-.281.141-.142.04-.307.075-.494.106-.185.029-.366.054-.542.077-.173.02-.314.037-.422.051-.261.034-.505.09-.732.166-.225.074-.407.186-.546.337-.136.148-.204.349-.204.605 0 .35.129.614.387.793q.393.264.993.264m7.529-5.795v.852h-3.392v-.852zm-2.403-1.569h1.005v6.239c0 .284.041.497.124.639.085.139.193.233.324.281.133.046.274.069.422.069.11 0 .201-.006.272-.017.071-.015.128-.026.171-.035l.204.904c-.068.025-.163.051-.285.077q-.183.042-.465.042c-.284 0-.562-.061-.835-.183-.27-.122-.494-.308-.673-.558-.176-.25-.264-.566-.264-.946zm6.505 8.25c-.591 0-1.11-.14-1.556-.422-.443-.281-.79-.674-1.04-1.18-.247-.506-.37-1.097-.37-1.773 0-.681.123-1.277.37-1.785.25-.509.597-.904 1.04-1.185.446-.281.965-.422 1.556-.422.59 0 1.107.141 1.551.422.446.281.792.676 1.039 1.185.25.508.375 1.104.375 1.785q0 1.014-.375 1.773c-.247.506-.593.899-1.039 1.18-.444.282-.961.422-1.551.422m0-.903c.448 0 .818-.115 1.107-.345.29-.23.505-.533.644-.908s.209-.781.209-1.219c0-.437-.07-.845-.209-1.223-.139-.377-.354-.683-.644-.916-.289-.233-.659-.349-1.107-.349-.449 0-.819.116-1.108.349-.29.233-.505.539-.644.916-.139.378-.209.786-.209 1.223 0 .438.07.844.209 1.219s.354.678.644.908c.289.23.659.345 1.108.345m4.501.767v-6.545h.971v.988h.068c.12-.324.336-.586.648-.788.313-.202.665-.303 1.057-.303.074 0 .166.002.277.005.111.002.194.007.251.012v1.023c-.034-.008-.112-.021-.234-.038-.119-.02-.246-.03-.379-.03-.319 0-.603.067-.853.2q-.3705.1965-.588.546c-.142.23-.213.492-.213.788V136zm9.101-5.08-.904.256c-.056-.15-.14-.297-.251-.439-.108-.145-.256-.264-.443-.358-.188-.093-.428-.14-.72-.14-.401 0-.735.092-1.002.277-.264.181-.396.413-.396.694 0 .25.091.448.273.593.181.144.466.265.852.362l.971.238c.586.142 1.022.36 1.309.652.287.29.43.664.43 1.121 0 .375-.108.71-.324 1.006-.213.295-.511.528-.895.699q-.5745.255-1.338.255c-.667 0-1.22-.145-1.657-.434-.438-.29-.715-.713-.831-1.27l.954-.239c.091.352.263.617.516.793.256.176.589.264 1.001.264.469 0 .841-.099 1.117-.298.278-.202.417-.443.417-.725 0-.227-.079-.417-.238-.571-.159-.156-.404-.272-.733-.349l-1.091-.256c-.6-.142-1.04-.362-1.321-.66-.279-.302-.418-.678-.418-1.13 0-.369.104-.696.311-.98.211-.284.496-.507.857-.669q.5445-.243 1.236-.243c.647 0 1.156.142 1.525.426.372.285.637.66.793 1.125M411.258 127.273V136h-1.057v-8.727zm2.988 4.789V136h-1.005v-6.545h.971v1.022h.086c.153-.332.386-.599.698-.801.313-.204.716-.307 1.211-.307.443 0 .831.091 1.163.273.332.179.591.452.776.818.184.364.277.824.277 1.381V136h-1.006v-4.091c0-.514-.134-.915-.401-1.202-.267-.289-.633-.434-1.099-.434-.321 0-.608.069-.861.209-.25.139-.447.342-.592.609s-.218.591-.218.971m8.861-2.607v.852h-3.392v-.852zm-2.404-1.569h1.006v6.239c0 .284.041.497.124.639.085.139.193.233.324.281.133.046.274.069.421.069.111 0 .202-.006.273-.017.071-.015.128-.026.171-.035l.204.904c-.068.025-.163.051-.285.077q-.183.042-.465.042c-.284 0-.562-.061-.835-.183-.27-.122-.494-.308-.673-.558-.176-.25-.265-.566-.265-.946zm6.591 8.25q-.9465 0-1.632-.417c-.455-.281-.806-.674-1.053-1.176-.244-.506-.366-1.094-.366-1.765 0-.67.122-1.261.366-1.772.247-.515.591-.915 1.031-1.202q.6645-.435 1.551-.435c.341 0 .678.057 1.01.171.333.113.635.298.908.554.273.253.49.588.652 1.005.162.418.243.932.243 1.543v.426h-5.046v-.869h4.023c0-.369-.074-.699-.221-.989-.145-.29-.353-.518-.623-.686-.267-.167-.582-.251-.946-.251-.4 0-.747.099-1.039.298-.29.196-.513.452-.669.767-.157.315-.235.653-.235 1.014v.58c0 .494.085.913.256 1.257q.2595.5115.72.78c.307.176.663.264 1.07.264.264 0 .503-.037.716-.111.215-.077.402-.19.558-.341.156-.153.277-.344.362-.571l.972.273c-.103.329-.275.619-.516.869-.241.247-.54.441-.895.58q-.5325.204-1.197.204m4.24-.136v-6.545h.971v.988h.069c.119-.324.335-.586.647-.788.313-.202.665-.303 1.057-.303.074 0 .166.002.277.005.111.002.195.007.251.012v1.023c-.034-.008-.112-.021-.234-.038-.119-.02-.246-.03-.379-.03-.318 0-.602.067-.852.2-.248.131-.444.313-.589.546-.142.23-.213.492-.213.788V136zm6.391.153c-.415 0-.791-.078-1.13-.234-.338-.159-.606-.388-.805-.686-.199-.301-.298-.665-.298-1.091 0-.375.074-.679.221-.912.148-.236.346-.42.593-.554.247-.133.52-.233.818-.298.301-.068.604-.122.908-.162.397-.051.72-.09.967-.115.25-.029.432-.075.545-.141.117-.065.175-.179.175-.341v-.034c0-.42-.115-.747-.345-.98-.227-.233-.573-.349-1.036-.349-.48 0-.856.105-1.129.315s-.464.435-.575.673l-.955-.341c.171-.397.398-.707.682-.929.287-.224.6-.38.938-.468.34-.091.676-.137 1.005-.137.21 0 .452.026.725.077.275.048.541.149.797.303.258.153.473.385.643.694.17.31.256.725.256 1.245V136h-1.006v-.886h-.051c-.068.142-.182.294-.341.456s-.371.299-.635.413-.587.17-.967.17m.153-.903c.398 0 .733-.078 1.006-.234.275-.157.483-.358.622-.605q.213-.372.213-.78v-.921c-.043.051-.136.098-.281.141-.142.04-.307.075-.495.106-.184.029-.365.054-.541.077-.173.02-.314.037-.422.051-.261.034-.505.09-.733.166-.224.074-.406.186-.545.337-.136.148-.205.349-.205.605 0 .35.13.614.388.793q.393.264.993.264m7.341.886c-.613 0-1.142-.145-1.585-.434-.443-.29-.784-.689-1.023-1.198-.238-.508-.358-1.089-.358-1.743 0-.664.123-1.251.367-1.76.247-.511.591-.91 1.031-1.197q.6645-.435 1.551-.435c.461 0 .875.086 1.245.256.369.17.672.409.907.716.236.307.382.665.439 1.074h-1.005c-.077-.299-.248-.563-.512-.793-.261-.233-.613-.349-1.057-.349-.392 0-.735.102-1.031.307-.292.201-.521.487-.686.856-.162.367-.243.797-.243 1.291 0 .506.08.946.239 1.321.162.375.389.666.682.874.295.207.642.311 1.039.311.262 0 .499-.045.712-.136s.394-.222.541-.392c.148-.171.253-.375.316-.614h1.005c-.057.386-.197.734-.422 1.044-.221.307-.515.551-.882.733-.363.179-.787.268-1.27.268m6.891-6.681v.852h-3.392v-.852zm-2.403-1.569h1.005v6.239c0 .284.041.497.124.639.085.139.193.233.324.281.133.046.274.069.422.069.11 0 .201-.006.272-.017.071-.015.128-.026.171-.035l.204.904c-.068.025-.163.051-.285.077q-.183.042-.465.042c-.284 0-.562-.061-.835-.183-.27-.122-.494-.308-.673-.558-.176-.25-.264-.566-.264-.946zm3.916 8.114v-6.545h1.005V136zm.511-7.636q-.294 0-.507-.201c-.139-.133-.209-.294-.209-.481 0-.188.07-.348.209-.482.142-.133.311-.2.507-.2s.364.067.503.2c.142.134.213.294.213.482 0 .187-.071.348-.213.481-.139.134-.307.201-.503.201m7.689 1.091L459.602 136h-1.022l-2.421-6.545h1.091l1.807 5.215h.068l1.807-5.215zm3.837 6.681q-.9465 0-1.632-.417c-.455-.281-.805-.674-1.053-1.176-.244-.506-.366-1.094-.366-1.765 0-.67.122-1.261.366-1.772.248-.515.591-.915 1.032-1.202q.6645-.435 1.551-.435c.341 0 .677.057 1.01.171.332.113.635.298.907.554.273.253.49.588.652 1.005.162.418.243.932.243 1.543v.426h-5.045v-.869h4.023c0-.369-.074-.699-.222-.989-.145-.29-.352-.518-.622-.686-.267-.167-.583-.251-.946-.251-.401 0-.747.099-1.04.298-.29.196-.513.452-.669.767q-.234.4725-.234 1.014v.58q0 .741.255 1.257.261.5115.72.78c.307.176.664.264 1.07.264.264 0 .503-.037.716-.111.216-.077.402-.19.558-.341.156-.153.277-.344.362-.571l.972.273c-.102.329-.274.619-.516.869-.241.247-.539.441-.894.58-.356.136-.755.204-1.198.204m10.274 0c-.613 0-1.142-.145-1.585-.434-.443-.29-.784-.689-1.023-1.198-.238-.508-.358-1.089-.358-1.743 0-.664.122-1.251.367-1.76.247-.511.591-.91 1.031-1.197q.6645-.435 1.551-.435c.46 0 .875.086 1.245.256.369.17.671.409.907.716s.382.665.439 1.074h-1.006c-.076-.299-.247-.563-.511-.793-.261-.233-.614-.349-1.057-.349-.392 0-.736.102-1.031.307-.293.201-.521.487-.686.856-.162.367-.243.797-.243 1.291 0 .506.08.946.239 1.321.162.375.389.666.681.874.296.207.643.311 1.04.311.262 0 .499-.045.712-.136s.393-.222.541-.392c.148-.171.253-.375.315-.614h1.006c-.057.386-.197.734-.422 1.044-.221.307-.515.551-.882.733-.364.179-.787.268-1.27.268m6.703 0c-.591 0-1.109-.14-1.555-.422-.443-.281-.79-.674-1.04-1.18-.247-.506-.371-1.097-.371-1.773 0-.681.124-1.277.371-1.785.25-.509.597-.904 1.04-1.185.446-.281.964-.422 1.555-.422s1.108.141 1.551.422c.447.281.793.676 1.04 1.185.25.508.375 1.104.375 1.785q0 1.014-.375 1.773c-.247.506-.593.899-1.04 1.18-.443.282-.96.422-1.551.422m0-.903c.449 0 .819-.115 1.108-.345.29-.23.505-.533.644-.908s.209-.781.209-1.219c0-.437-.07-.845-.209-1.223-.139-.377-.354-.683-.644-.916-.289-.233-.659-.349-1.108-.349s-.818.116-1.108.349c-.289.233-.504.539-.643.916-.139.378-.209.786-.209 1.223 0 .438.07.844.209 1.219s.354.678.643.908c.29.23.659.345 1.108.345m4.501.767v-6.545h.972v1.022h.085c.137-.349.357-.62.661-.814q.456-.294 1.095-.294c.432 0 .791.098 1.078.294.29.194.516.465.678.814h.068c.167-.338.419-.606.754-.805q.5025-.303 1.206-.303c.585 0 1.064.184 1.436.55.372.364.558.93.558 1.7V136h-1.005v-4.381c0-.483-.132-.828-.397-1.035-.264-.208-.575-.311-.933-.311-.46 0-.817.139-1.069.417-.253.276-.38.625-.38 1.049V136h-1.022v-4.483c0-.372-.121-.672-.363-.899q-.3615-.345-.933-.345c-.261 0-.506.069-.733.209-.224.139-.406.332-.545.579-.137.244-.205.527-.205.848V136zm10.43 2.455v-9h.972v1.039h.119c.074-.113.176-.258.307-.434.133-.179.324-.338.571-.478q.375-.213 1.014-.213c.551 0 1.037.138 1.457.414.421.275.749.666.985 1.172.236.505.354 1.102.354 1.789 0 .694-.118 1.294-.354 1.803-.236.506-.563.898-.98 1.176-.418.276-.899.413-1.445.413-.42 0-.757-.069-1.01-.208-.253-.142-.447-.303-.584-.482-.136-.182-.241-.332-.315-.452h-.085v3.461zm.989-5.728c0 .495.072.931.217 1.309.145.375.357.669.635.882q.417.315 1.023.315c.42 0 .771-.111 1.052-.332.284-.225.497-.526.64-.904.144-.381.217-.804.217-1.27 0-.46-.071-.875-.213-1.244-.139-.372-.351-.666-.635-.882-.281-.219-.635-.328-1.061-.328-.409 0-.753.103-1.032.311q-.417.306-.63.861c-.142.366-.213.794-.213 1.282m8.983 3.409c-.591 0-1.11-.14-1.556-.422-.443-.281-.789-.674-1.039-1.18-.248-.506-.371-1.097-.371-1.773 0-.681.123-1.277.371-1.785.25-.509.596-.904 1.039-1.185.446-.281.965-.422 1.556-.422s1.108.141 1.551.422c.446.281.792.676 1.04 1.185.25.508.375 1.104.375 1.785q0 1.014-.375 1.773c-.248.506-.594.899-1.04 1.18-.443.282-.96.422-1.551.422m0-.903c.449 0 .818-.115 1.108-.345.289-.23.504-.533.643-.908s.209-.781.209-1.219c0-.437-.07-.845-.209-1.223-.139-.377-.354-.683-.643-.916-.29-.233-.659-.349-1.108-.349s-.818.116-1.108.349-.505.539-.644.916c-.139.378-.209.786-.209 1.223 0 .438.07.844.209 1.219s.354.678.644.908.659.345 1.108.345m5.506-3.171V136h-1.005v-6.545h.971v1.022h.086c.153-.332.386-.599.698-.801.313-.204.716-.307 1.211-.307.443 0 .831.091 1.163.273.332.179.591.452.776.818.184.364.277.824.277 1.381V136h-1.006v-4.091c0-.514-.134-.915-.401-1.202-.267-.289-.633-.434-1.099-.434-.321 0-.608.069-.861.209-.25.139-.447.342-.592.609s-.218.591-.218.971m8.759 4.074q-.9465 0-1.632-.417c-.455-.281-.806-.674-1.053-1.176-.244-.506-.367-1.094-.367-1.765 0-.67.123-1.261.367-1.772.247-.515.591-.915 1.031-1.202q.6645-.435 1.551-.435c.341 0 .678.057 1.01.171.333.113.635.298.908.554.273.253.49.588.652 1.005.162.418.243.932.243 1.543v.426h-5.046v-.869h4.023c0-.369-.074-.699-.221-.989-.145-.29-.353-.518-.623-.686-.267-.167-.582-.251-.946-.251-.4 0-.747.099-1.039.298-.29.196-.513.452-.669.767-.157.315-.235.653-.235 1.014v.58c0 .494.085.913.256 1.257q.2595.5115.72.78c.307.176.663.264 1.07.264.264 0 .502-.037.716-.111.215-.077.402-.19.558-.341.156-.153.277-.344.362-.571l.972.273c-.103.329-.275.619-.516.869-.242.247-.54.441-.895.58q-.5325.204-1.197.204m5.245-4.074V136h-1.005v-6.545h.971v1.022h.085q.231-.498.699-.801c.313-.204.716-.307 1.211-.307.443 0 .831.091 1.163.273.332.179.591.452.776.818.184.364.276.824.276 1.381V136h-1.005v-4.091c0-.514-.134-.915-.401-1.202-.267-.289-.633-.434-1.099-.434-.321 0-.608.069-.861.209-.25.139-.447.342-.592.609s-.218.591-.218.971m8.861-2.607v.852h-3.392v-.852zm-2.404-1.569h1.006v6.239c0 .284.041.497.124.639.085.139.193.233.324.281.133.046.274.069.421.069.111 0 .202-.006.273-.017.071-.015.128-.026.171-.035l.204.904c-.068.025-.163.051-.285.077-.123.028-.277.042-.465.042-.284 0-.562-.061-.835-.183-.27-.122-.494-.308-.673-.558-.177-.25-.265-.566-.265-.946zm8.436 3.034-.904.256c-.056-.15-.14-.297-.251-.439-.108-.145-.256-.264-.443-.358-.188-.093-.428-.14-.72-.14-.401 0-.735.092-1.002.277-.264.181-.396.413-.396.694 0 .25.091.448.273.593.181.144.465.265.852.362l.971.238c.586.142 1.022.36 1.309.652.287.29.43.664.43 1.121 0 .375-.108.71-.324 1.006-.213.295-.511.528-.895.699q-.5745.255-1.338.255c-.667 0-1.22-.145-1.657-.434-.438-.29-.715-.713-.831-1.27l.954-.239c.091.352.263.617.516.793.255.176.589.264 1.001.264.469 0 .841-.099 1.117-.298.278-.202.417-.443.417-.725 0-.227-.079-.417-.238-.571-.159-.156-.404-.272-.733-.349l-1.091-.256c-.6-.142-1.04-.362-1.321-.66-.279-.302-.418-.678-.418-1.13 0-.369.104-.696.311-.98.21-.284.496-.507.857-.669q.5445-.243 1.236-.243c.647 0 1.156.142 1.525.426.372.285.637.66.793 1.125M190.067 136v-8.727h3.051c.608 0 1.109.105 1.504.315q.5925.3105.882.84c.193.349.29.737.29 1.163 0 .375-.067.685-.2.929-.131.244-.304.437-.52.579-.213.142-.445.248-.695.316v.085c.267.017.536.111.805.281.27.171.496.415.678.733s.273.708.273 1.168c0 .437-.1.831-.299 1.18-.198.35-.512.627-.941.831-.429.205-.988.307-1.675.307zm1.056-.938h2.097c.69 0 1.18-.133 1.47-.4.293-.27.439-.597.439-.98 0-.296-.075-.568-.226-.818-.15-.253-.365-.455-.643-.605-.279-.154-.608-.231-.989-.231h-2.148zm0-3.954h1.961c.318 0 .605-.063.86-.188.259-.125.463-.301.614-.528.153-.227.23-.494.23-.801 0-.384-.133-.709-.4-.976-.267-.27-.691-.405-1.27-.405h-1.995zm8.538 5.045c-.415 0-.791-.078-1.129-.234-.338-.159-.607-.388-.806-.686-.198-.301-.298-.665-.298-1.091q0-.5625.222-.912c.147-.236.345-.42.592-.554.247-.133.52-.233.818-.298.301-.068.604-.122.908-.162.398-.051.72-.09.967-.115.25-.029.432-.075.546-.141.116-.065.174-.179.174-.341v-.034c0-.42-.115-.747-.345-.98-.227-.233-.572-.349-1.035-.349-.48 0-.857.105-1.13.315-.272.21-.464.435-.575.673l-.954-.341c.17-.397.397-.707.681-.929.287-.224.6-.38.938-.468.341-.091.676-.137 1.006-.137.21 0 .451.026.724.077.276.048.541.149.797.303.258.153.473.385.643.694.171.31.256.725.256 1.245V136h-1.006v-.886h-.051c-.068.142-.182.294-.341.456s-.37.299-.635.413c-.264.114-.586.17-.967.17m.153-.903c.398 0 .733-.078 1.006-.234.276-.157.483-.358.622-.605q.213-.372.213-.78v-.921c-.042.051-.136.098-.281.141-.142.04-.307.075-.494.106-.185.029-.365.054-.541.077-.174.02-.314.037-.422.051-.262.034-.506.09-.733.166-.225.074-.406.186-.546.337-.136.148-.204.349-.204.605 0 .35.129.614.388.793.261.176.592.264.992.264m7.342.886c-.614 0-1.142-.145-1.586-.434-.443-.29-.784-.689-1.022-1.198-.239-.508-.358-1.089-.358-1.743 0-.664.122-1.251.366-1.76q.3705-.7665 1.032-1.197.6645-.435 1.551-.435c.46 0 .875.086 1.244.256s.672.409.908.716c.235.307.382.665.439 1.074h-1.006c-.077-.299-.247-.563-.511-.793-.262-.233-.614-.349-1.057-.349-.392 0-.736.102-1.032.307-.292.201-.521.487-.686.856-.162.367-.243.797-.243 1.291 0 .506.08.946.239 1.321.162.375.389.666.682.874.295.207.642.311 1.04.311.261 0 .498-.045.711-.136s.394-.222.542-.392c.147-.171.252-.375.315-.614h1.006c-.057.386-.198.734-.422 1.044-.222.307-.516.551-.882.733-.364.179-.787.268-1.27.268m4.981-2.522-.017-1.245h.205l2.863-2.914h1.245l-3.051 3.085h-.086zM211.2 136v-8.727h1.005V136zm4.159 0-2.557-3.239.716-.699 3.119 3.938zm4.741 2.591c-.486 0-.904-.063-1.253-.188-.35-.122-.641-.284-.874-.485-.23-.199-.413-.412-.55-.64l.802-.562c.091.119.206.256.345.409.139.156.329.291.571.405.244.116.564.175.959.175q.792 0 1.308-.384c.344-.256.515-.656.515-1.202v-1.329h-.085c-.074.119-.179.267-.315.443-.134.173-.327.328-.58.464q-.375.201-1.014.201c-.528 0-1.003-.125-1.423-.375-.418-.25-.749-.614-.993-1.091-.242-.477-.362-1.057-.362-1.739 0-.67.118-1.254.353-1.751.236-.5.564-.887.985-1.159.42-.276.906-.414 1.457-.414q.639 0 1.014.213c.253.14.446.299.58.478.136.176.241.321.315.434h.103v-1.039h.971v6.733c0 .562-.128 1.019-.383 1.372-.253.355-.594.615-1.023.779-.426.168-.901.252-1.423.252m-.034-3.597c.403 0 .744-.092 1.022-.277.279-.184.49-.45.635-.797.145-.346.218-.761.218-1.244 0-.471-.072-.888-.214-1.248-.142-.361-.352-.644-.63-.848-.279-.205-.622-.307-1.031-.307-.427 0-.782.108-1.066.324-.281.215-.493.505-.635.869-.139.364-.209.767-.209 1.21q0 .6825.213 1.206c.145.347.358.619.64.818.284.196.636.294 1.057.294M224.77 136v-6.545h.972v.988h.068c.119-.324.335-.586.648-.788q.468-.303 1.056-.303c.074 0 .167.002.277.005.111.002.195.007.252.012v1.023c-.034-.008-.112-.021-.235-.038-.119-.02-.245-.03-.379-.03-.318 0-.602.067-.852.2q-.3705.1965-.588.546c-.142.23-.213.492-.213.788V136zm6.925.136c-.591 0-1.11-.14-1.556-.422-.443-.281-.789-.674-1.039-1.18-.248-.506-.371-1.097-.371-1.773 0-.681.123-1.277.371-1.785.25-.509.596-.904 1.039-1.185.446-.281.965-.422 1.556-.422s1.108.141 1.551.422c.446.281.793.676 1.04 1.185.25.508.375 1.104.375 1.785q0 1.014-.375 1.773c-.247.506-.594.899-1.04 1.18-.443.282-.96.422-1.551.422m0-.903c.449 0 .818-.115 1.108-.345s.504-.533.643-.908.209-.781.209-1.219c0-.437-.07-.845-.209-1.223-.139-.377-.353-.683-.643-.916s-.659-.349-1.108-.349-.818.116-1.108.349-.504.539-.644.916c-.139.378-.208.786-.208 1.223 0 .438.069.844.208 1.219.14.375.354.678.644.908s.659.345 1.108.345m8.626-1.909v-3.869h1.006V136h-1.006v-1.108h-.068c-.154.332-.392.615-.716.848-.324.23-.733.345-1.228.345-.409 0-.772-.089-1.09-.268-.319-.182-.569-.455-.75-.818-.182-.367-.273-.829-.273-1.385v-4.159h1.006v4.09c0 .478.133.858.4 1.143.27.284.614.426 1.031.426.25 0 .505-.064.763-.192.261-.128.48-.324.656-.588.179-.264.269-.601.269-1.01m3.853-1.262V136h-1.005v-6.545h.971v1.022h.085q.231-.498.699-.801c.313-.204.716-.307 1.21-.307.444 0 .831.091 1.164.273.332.179.591.452.775.818.185.364.277.824.277 1.381V136h-1.005v-4.091c0-.514-.134-.915-.401-1.202-.267-.289-.633-.434-1.099-.434-.321 0-.608.069-.861.209-.25.139-.448.342-.592.609-.145.267-.218.591-.218.971m8.486 4.074c-.546 0-1.027-.137-1.445-.413-.418-.278-.744-.67-.98-1.176-.236-.509-.354-1.109-.354-1.803 0-.687.118-1.284.354-1.789.236-.506.564-.897.984-1.172q.6315-.414 1.458-.414c.426 0 .762.071 1.01.213.25.14.44.299.571.478.133.176.237.321.311.434h.085v-3.221h1.006V136h-.972v-1.006h-.119c-.074.12-.179.27-.316.452-.136.179-.331.34-.583.482-.253.139-.59.208-1.01.208m.136-.903q.6045 0 1.023-.315c.278-.213.49-.507.635-.882.145-.378.217-.814.217-1.309 0-.488-.071-.916-.213-1.282-.142-.37-.352-.657-.631-.861-.278-.208-.622-.311-1.031-.311-.426 0-.781.109-1.065.328-.282.216-.493.51-.635.882-.14.369-.209.784-.209 1.244 0 .466.071.889.213 1.27.145.378.358.679.639.904.284.221.637.332 1.057.332m9.482-4.313-.904.256c-.057-.15-.141-.297-.251-.439-.108-.145-.256-.264-.443-.358-.188-.093-.428-.14-.721-.14-.4 0-.734.092-1.001.277-.264.181-.396.413-.396.694 0 .25.091.448.272.593.182.144.466.265.853.362l.971.238c.585.142 1.022.36 1.308.652.287.29.431.664.431 1.121 0 .375-.108.71-.324 1.006-.213.295-.511.528-.895.699q-.5745.255-1.338.255c-.668 0-1.22-.145-1.658-.434-.437-.29-.714-.713-.831-1.27l.955-.239c.091.352.263.617.516.793.255.176.589.264 1.001.264.469 0 .841-.099 1.116-.298.279-.202.418-.443.418-.725 0-.227-.079-.417-.239-.571-.159-.156-.403-.272-.733-.349l-1.09-.256c-.6-.142-1.04-.362-1.321-.66-.279-.302-.418-.678-.418-1.13 0-.369.104-.696.311-.98.21-.284.496-.507.857-.669.363-.162.775-.243 1.235-.243.648 0 1.157.142 1.526.426.372.285.636.66.793 1.125"/><path fill="url(#paint0_linear_1_10)" d="M128 150h196v1H128z"/><path fill="url(#paint1_linear_1_10)" d="M328 150h296v1H328z"/><path fill="url(#paint2_linear_1_10)" d="M628 150h296v1H628z"/><path fill="url(#paint3_linear_1_10)" d="M928 150h196v1H928z"/><path fill="url(#paint4_linear_1_10)" d="M1128 150h196v1h-196z"/><defs><linearGradient id="paint0_linear_1_10" x1="128" x2="324" y1="150.5" y2="150.5" gradientUnits="userSpaceOnUse"><stop stop-color="#5f606a" stop-opacity="0"/><stop offset=".5" stop-color="#5f606a"/><stop offset="1" stop-color="#5f606a" stop-opacity="0"/></linearGradient><linearGradient id="paint1_linear_1_10" x1="328" x2="624" y1="150.5" y2="150.5" gradientUnits="userSpaceOnUse"><stop stop-color="#5f606a" stop-opacity="0"/><stop offset=".5" stop-color="#5f606a"/><stop offset="1" stop-color="#5f606a" stop-opacity="0"/></linearGradient><linearGradient id="paint2_linear_1_10" x1="628" x2="924" y1="150.5" y2="150.5" gradientUnits="userSpaceOnUse"><stop stop-color="#5f606a" stop-opacity="0"/><stop offset=".5" stop-color="#5f606a"/><stop offset="1" stop-color="#5f606a" stop-opacity="0"/></linearGradient><linearGradient id="paint3_linear_1_10" x1="928" x2="1124" y1="150.5" y2="150.5" gradientUnits="userSpaceOnUse"><stop stop-color="#5f606a" stop-opacity="0"/><stop offset=".5" stop-color="#5f606a"/><stop offset="1" stop-color="#5f606a" stop-opacity="0"/></linearGradient><linearGradient id="paint4_linear_1_10" x1="1128" x2="1324" y1="150.5" y2="150.5" gradientUnits="userSpaceOnUse"><stop stop-color="#5f606a" stop-opacity="0"/><stop offset=".5" stop-color="#5f606a"/><stop offset="1" stop-color="#5f606a" stop-opacity="0"/></linearGradient></defs></symbol><symbol id="discord-logo" fill="none" viewBox="0 0 15 15"><path fill="currentColor" fill-rule="evenodd" d="M5.07451 1.82584a.48.48 0 0 0-.12648-.003c-.8412.09162-2.1213.54544-2.87688.95524a.48.48 0 0 0-.13246.10594c-.31367.35864-.59823.94434-.82163 1.49784-.22961.5689-.41977 1.16846-.52812 1.60168C.23624 7.39369.0425 9.08728.01749 10.6925a.48.48 0 0 0 .0551.2309c.30109.5726.94756 1.1036 1.5955 1.4918.65523.3926 1.41923.703 2.03576.7626a.4804.4804 0 0 0 .39897-.1523c.15438-.1674.41648-.5579.61463-.8612.08994-.1376.17412-.269.241-.3742.66178.1205 1.49198.19 2.54157.19 1.04842 0 1.87794-.0694 2.53938-.1896.0668.1052.1509.2364.2407.3738.1982.3033.4603.6938.6146.8612a.4805.4805 0 0 0 .399.1523c.6165-.0596 1.3805-.37 2.0358-.7626.6479-.3882 1.2944-.9192 1.5955-1.4918a.4805.4805 0 0 0 .0551-.2309c-.025-1.60522-.2188-3.29881-.5715-4.70896-.1083-.43322-.2985-1.03278-.5281-1.60168-.2234-.5535-.508-1.1392-.8216-1.49784a.48.48 0 0 0-.1325-.10594c-.7556-.4098-2.0357-.86362-2.8769-.95524a.48.48 0 0 0-.12645.003c-.20629.03241-.38395.13874-.51496.23771-.13832.10449-.26679.23313-.37769.36327-.16072.18862-.31603.41806-.41612.63543C8.27237 3.03501 7.90138 3.02 7.5 3.02c-.4023 0-.77407.01508-1.11663.04244-.10009-.21743-.25545-.44695-.41621-.63562-.1109-.13014-.23938-.25878-.37769-.36327-.13101-.09897-.30867-.2053-.51496-.23771m5.94359 9.71236c.0214.0331.0434.0669.0657.101.1331.2038.2649.3993.367.5417.3967-.0893.9012-.2991 1.3853-.5892.5434-.3256.9737-.6999 1.1816-1.0178-.0325-1.50632-.2184-3.07021-.5404-4.35742-.0973-.38889-.2735-.94627-.487-1.47531-.201-.49791-.415-.91955-.6023-1.16197-.6504-.33701-1.6751-.69338-2.3426-.78933-.0146.00852-.0341.02115-.05865.03968-.06812.05145-.14657.12711-.22564.2199a2.2 2.2 0 0 0-.11343.14504c.30532.05582.57762.12261.81852.19674.6837.21037 1.1766.49916 1.4178.82077.1591.21208.1161.51294-.096.672s-.5129.11608-.672-.096c-.0588-.07839-.3159-.2896-.9322-.47923C9.58933 4.12585 8.71356 3.98 7.5 3.98s-2.08933.14585-2.68384.32877c-.61628.18963-.87337.40084-.93216.47923-.15906.21208-.45992.25506-.672.096s-.25506-.45992-.096-.672c.24121-.32161.73411-.6104 1.41783-.82077.24035-.07396.51188-.14061.81633-.19635a2.21 2.21 0 0 0-.11371-.14543c-.07907-.09279-.15752-.16845-.22564-.2199-.02453-.01853-.04407-.03116-.05864-.03968-.66753.09595-1.69218.45232-2.34263.78933-.18728.24242-.40129.66406-.60225 1.16197-.21353.52904-.38977 1.08642-.48704 1.47531-.32196 1.28721-.50789 2.8511-.54039 4.35742.20786.3179.63821.6922 1.18162 1.0178.48409.2901.98855.4999 1.38532.5892.10205-.1424.23385-.3379.367-.5417.02246-.0344.04458-.0684.06616-.1017-.78475-.2784-1.20635-.6617-1.47932-1.0711-.14705-.2206-.08744-.51862.13313-.66566.22058-.14705.51859-.08745.66564.13313.26136.39203.94414 1.08623 4.20061 1.08623s3.93918-.6941 4.20058-1.08624c.1471-.22057.4451-.28017.6657-.13312s.2802.44506.1331.66566c-.2732.4098-.6953.7934-1.4813 1.0718M4.08049 7.01221c.24363-.26237.57427-.41059.91958-.41223.34531.00164.67596.14986.91959.41223.24363.26238.38041.61753.38041.98777 0 .37023-.13678.72538-.38041.98776s-.57428.41059-.91959.41224c-.34531-.00165-.67595-.14987-.91958-.41224-.24364-.26238-.38042-.61753-.38042-.98776 0-.37024.13678-.72539.38042-.98777m5.91836-.41223c-.34531.00164-.67595.14986-.91959.41223-.24363.26238-.38041.61753-.38041.98777 0 .37023.13678.72538.38041.98776s.57428.41059.91959.41224c.34535-.00165.67595-.14987.91955-.41224.2437-.26238.3805-.61753.3805-.98776 0-.37024-.1368-.72539-.3805-.98777-.2436-.26237-.5742-.41059-.91955-.41223" clip-rule="evenodd"/></symbol><symbol id="dna-off" fill="none" stroke="currentColor" stroke-linecap="round" stroke-linejoin="round" stroke-width="2" viewBox="0 0 24 24"><path d="M15 2c-1.35 1.5-2.092 3-2.5 4.5M9 22c1.35-1.5 2.092-3 2.5-4.5M2 15c3.333-3 6.667-3 10-3m10-3c-1.5 1.35-3 2.092-4.5 2.5M17 6l-2.5-2.5M14 8l-1.5-1.5M7 18l2.5 2.5M3.5 14.5l.5.5M20 9l.5.5M6.5 12.5l1 1M16.5 10.5l1 1M10 16l1.5 1.5M2 2l20 20"/></symbol><symbol id="dna" fill="none" stroke="currentColor" stroke-linecap="round" stroke-linejoin="round" stroke-width="2" viewBox="0 0 24 24"><path d="M2 15c6.667-6 13.333 0 20-6M9 22c1.798-1.998 2.518-3.995 2.807-5.993M15 2c-1.798 1.998-2.518 3.995-2.807 5.993M17 6l-2.5-2.5M14 8l-1-1M7 18l2.5 2.5M3.5 14.5l.5.5M20 9l.5.5M6.5 12.5l1 1M16.5 10.5l1 1M10 16l1.5 1.5"/></symbol><symbol id="github" fill="none" stroke="currentColor" stroke-linecap="round" stroke-linejoin="round" stroke-width="2" viewBox="0 0 24 24"><path d="M15 22v-4a4.8 4.8 0 0 0-1-3.5c3 0 6-2 6-5.5.08-1.25-.27-2.48-1-3.5.28-1.15.28-2.35 0-3.5 0 0-1 0-3 1.5-2.64-.5-5.36-.5-8 0C6 2 5 2 5 2c-.3 1.15-.3 2.35 0 3.5A5.403 5.403 0 0 0 4 9c0 3.5 3 5.5 6 5.5-.39.49-.68 1.05-.85 1.65S8.93 17.38 9 18v4"/><path d="M9 18c-4.51 2-5-2-7-2"/></symbol><symbol id="linkedin" fill="none" stroke="currentColor" stroke-linecap="round" stroke-linejoin="round" stroke-width="2" viewBox="0 0 24 24"><path d="M16 8a6 6 0 0 1 6 6v7h-4v-7a2 2 0 0 0-2-2 2 2 0 0 0-2 2v7h-4v-7a6 6 0 0 1 6-6M2 9h4v12H2z"/><circle cx="4" cy="4" r="2"/></symbol><symbol id="log-in" fill="none" stroke="currentColor" stroke-linecap="round" stroke-linejoin="round" stroke-width="2" viewBox="0 0 24 24"><path d="M15 3h4a2 2 0 0 1 2 2v14a2 2 0 0 1-2 2h-4M10 17l5-5-5-5M15 12H3"/></symbol><symbol id="log-out" fill="none" stroke="currentColor" stroke-linecap="round" stroke-linejoin="round" stroke-width="2" viewBox="0 0 24 24"><path d="M9 21H5a2 2 0 0 1-2-2V5a2 2 0 0 1 2-2h4M16 17l5-5-5-5M21 12H9"/></symbol><symbol id="scroll" fill="none" stroke="currentColor" stroke-linecap="round" stroke-linejoin="round" stroke-width="2" viewBox="0 0 24 24"><path d="M19 17V5a2 2 0 0 0-2-2H4"/><path d="M8 21h12a2 2 0 0 0 2-2v-1a1 1 0 0 0-1-1H11a1 1 0 0 0-1 1v1a2 2 0 1 1-4 0V5a2 2 0 1 0-4 0v2a1 1 0 0 0 1 1h3"/></symbol><symbol id="slash" fill="none" stroke="currentColor" stroke-linecap="round" stroke-linejoin="round" stroke-width="2" class="lucide lucide-slash" viewBox="0 0 24 24"><path d="M22 2 2 22"/></symbol><symbol id="users" fill="none" stroke="currentColor" stroke-linecap="round" stroke-linejoin="round" stroke-width="2" viewBox="0 0 24 24"><path d="M16 21v-2a4 4 0 0 0-4-4H6a4 4 0 0 0-4 4v2"/><circle cx="9" cy="7" r="4"/><path d="M22 21v-2a4 4 0 0 0-3-3.87M16 3.13a4 4 0 0 1 0 7.75"/></symbol></defs></svg>